<svg width="906" height="630" viewBox="0 0 906 630" fill="none" xmlns="http://www.w3.org/2000/svg">
<path d="M826.79 66.941H646.29C637.1 66.941 629.65 74.391 629.65 83.581V341.691C629.65 350.881 637.1 358.331 646.29 358.331H826.79C835.98 358.331 843.43 350.881 843.43 341.691V83.581C843.43 74.391 835.98 66.941 826.79 66.941Z" stroke="#CCDDE2" stroke-width="4.83" stroke-miterlimit="10"/>
<path d="M819 96.961H656.27C651.675 96.961 647.95 100.686 647.95 105.281V139.891C647.95 144.486 651.675 148.211 656.27 148.211H819C823.595 148.211 827.32 144.486 827.32 139.891V105.281C827.32 100.686 823.595 96.961 819 96.961Z" stroke="#CCDDE2" stroke-width="4.83" stroke-miterlimit="10"/>
<path d="M736.54 118.549C739.467 118.549 741.84 116.176 741.84 113.249C741.84 110.322 739.467 107.949 736.54 107.949C733.613 107.949 731.24 110.322 731.24 113.249C731.24 116.176 733.613 118.549 736.54 118.549Z" fill="#D7E8F0"/>
<path d="M721.73 137.232C721.73 133.304 723.29 129.537 726.068 126.76C728.845 123.982 732.612 122.422 736.54 122.422C740.468 122.422 744.235 123.982 747.012 126.76C749.79 129.537 751.35 133.304 751.35 137.232H721.73Z" fill="#D7E8F0"/>
<path d="M737.62 203.141C731.974 203.143 726.455 204.819 721.761 207.957C717.067 211.095 713.41 215.555 711.25 220.772C709.091 225.989 708.527 231.729 709.63 237.267C710.733 242.804 713.452 247.89 717.446 251.882C721.439 255.874 726.526 258.592 732.064 259.693C737.602 260.794 743.342 260.228 748.558 258.066C753.774 255.905 758.232 252.246 761.369 247.551C764.506 242.856 766.18 237.337 766.18 231.691C766.18 227.941 765.441 224.227 764.006 220.763C762.57 217.298 760.467 214.15 757.814 211.499C755.162 208.848 752.014 206.745 748.549 205.311C745.084 203.877 741.37 203.139 737.62 203.141ZM737.62 253.351C736.548 253.298 735.537 252.835 734.797 252.058C734.057 251.281 733.644 250.249 733.644 249.176C733.644 248.102 734.057 247.07 734.797 246.293C735.537 245.516 736.548 245.053 737.62 245.001C738.692 245.053 739.703 245.516 740.443 246.293C741.183 247.07 741.596 248.102 741.596 249.176C741.596 250.249 741.183 251.281 740.443 252.058C739.703 252.835 738.692 253.298 737.62 253.351ZM742.89 221.241C742.01 227.431 741.27 233.931 739.42 239.951C738.98 241.401 736.26 241.401 735.82 239.951C734.517 235.425 733.515 230.818 732.82 226.161C732.25 222.771 730.27 217.281 732.16 213.991C733.83 210.991 738.53 210.691 741.26 212.231C744.61 214.121 743.29 218.161 742.89 221.241Z" fill="#D7E8F0"/>
<path d="M425.23 124.792C415.22 121.807 404.55 121.858 394.569 124.937C384.588 128.017 375.745 133.987 369.157 142.093C362.569 150.199 358.533 160.076 357.56 170.476C356.586 180.875 358.717 191.33 363.686 200.518C368.654 209.706 376.235 217.215 385.471 222.094C394.706 226.973 405.181 229.004 415.571 227.93C425.961 226.855 435.799 222.724 443.841 216.058C451.882 209.393 457.767 200.492 460.75 190.482C462.732 183.836 463.385 176.865 462.672 169.967C461.96 163.069 459.895 156.379 456.597 150.279C453.298 144.179 448.831 138.789 443.449 134.416C438.067 130.042 431.876 126.772 425.23 124.792ZM398.7 213.792C396.793 213.162 395.206 211.814 394.276 210.033C393.347 208.253 393.148 206.18 393.722 204.255C394.296 202.33 395.597 200.705 397.35 199.724C399.103 198.743 401.169 198.484 403.11 199.002C404.108 199.268 405.042 199.732 405.857 200.365C406.673 200.999 407.353 201.79 407.857 202.691C408.361 203.592 408.68 204.586 408.793 205.612C408.907 206.638 408.813 207.677 408.518 208.667C408.223 209.656 407.732 210.577 407.075 211.374C406.418 212.17 405.608 212.827 404.692 213.305C403.777 213.783 402.775 214.072 401.746 214.156C400.716 214.239 399.681 214.116 398.7 213.792ZM425 159.652C420.17 170.162 415.41 181.292 409 190.982C407.46 193.322 402.63 191.882 402.62 189.082C402.702 180.38 403.37 171.694 404.62 163.082C405.4 156.792 404.79 146.012 409.88 141.172C414.4 136.842 422.88 138.702 426.93 142.862C431.8 147.942 427.34 154.412 425 159.652Z" fill="#ED3FF1"/>
<path d="M277.73 241.719C274.068 245.446 271.593 250.175 270.619 255.308C269.644 260.441 270.213 265.748 272.255 270.558C274.296 275.368 277.717 279.464 282.087 282.329C286.456 285.194 291.576 286.7 296.801 286.655C302.026 286.61 307.12 285.018 311.44 282.078C315.759 279.138 319.11 274.984 321.068 270.14C323.027 265.296 323.505 259.98 322.443 254.864C321.381 249.748 318.825 245.063 315.1 241.399C310.101 236.487 303.357 233.761 296.349 233.821C289.341 233.881 282.644 236.722 277.73 241.719ZM310.87 274.289C310.515 274.651 310.092 274.939 309.625 275.137C309.158 275.336 308.657 275.44 308.15 275.445C307.643 275.449 307.14 275.354 306.67 275.164C306.2 274.975 305.772 274.694 305.41 274.339C305.048 273.984 304.76 273.561 304.562 273.094C304.363 272.628 304.259 272.126 304.254 271.619C304.25 271.112 304.345 270.609 304.535 270.139C304.724 269.669 305.005 269.241 305.36 268.879C306.077 268.148 307.056 267.733 308.08 267.723C309.104 267.714 310.089 268.112 310.82 268.829C311.551 269.546 311.966 270.525 311.976 271.549C311.985 272.573 311.587 273.558 310.87 274.289ZM293.1 249.999C296.61 254.599 300.42 259.309 303.19 264.429C303.86 265.659 302.1 267.429 300.86 266.809C297.041 264.724 293.366 262.386 289.86 259.809C287.25 257.999 282.35 255.739 281.4 252.349C280.54 249.349 283.4 246.009 286.14 245.219C289.51 244.239 291.32 247.729 293.1 249.999Z" fill="#ED3FF1"/>
<path d="M665.89 171.09H805.36" stroke="#CCDDE2" stroke-width="4.83" stroke-miterlimit="10"/>
<path d="M665.89 184.82H805.36" stroke="#CCDDE2" stroke-width="4.83" stroke-miterlimit="10"/>
<path d="M665.89 273.219H805.36" stroke="#CCDDE2" stroke-width="4.83" stroke-miterlimit="10"/>
<path d="M698.28 286.211H772.96" stroke="#CCDDE2" stroke-width="4.83" stroke-miterlimit="10"/>
<path d="M843.44 255.199C855.74 270.659 867.44 289.819 878.02 313.429C942.44 457.289 861.92 530.299 861.92 530.299" stroke="#9F9F9F" stroke-width="4.83" stroke-miterlimit="10"/>
<path d="M170.59 369.272C170.59 369.272 75 260.842 194.2 207.152C313.4 153.462 337 146.002 328.4 90.152C319.8 34.302 387.4 -22.568 493.71 15.012C600.02 52.592 602.15 123.412 594.61 178.162C590.33 209.372 608.04 216.872 629.61 215.302" stroke="#9F9F9F" stroke-width="4.83" stroke-miterlimit="10"/>
<path d="M836.7 577.091C836.457 583.077 834.908 588.937 832.16 594.261C832.052 594.526 831.925 594.783 831.78 595.031C826.96 603.69 820.217 611.128 812.07 616.771L811.78 616.971C804.426 621.89 796.154 625.275 787.46 626.921H880C880 626.921 867.62 450.371 753.84 364.471C643.73 281.351 540.64 321.411 534.1 324.091C536.126 329.811 537.032 335.868 536.77 341.931C536.77 341.931 545.05 346.241 546.43 361.671C547.81 377.101 550.69 420.001 523 428.081C523 428.081 498.14 427.471 491.57 417.931C485 408.391 483.42 410.331 480.84 412.751C478.84 414.581 466.77 421.121 461.2 424.121C461.904 424.155 462.603 424.252 463.29 424.411C463.29 424.411 466.48 451.331 505.51 493.521C506.832 494.914 508.081 496.376 509.25 497.901C515.143 503.054 521.767 508.314 529.12 513.681L573.66 546.271C574.665 547.126 575.857 547.732 577.14 548.041C579.632 548.669 582.237 548.693 584.74 548.111C589.92 547.111 625.29 543.501 648.18 541.221C648.7 541.221 649.25 541.121 649.76 541.061L652.76 540.771C653.24 540.771 653.76 540.671 654.18 540.641L656.88 540.381C658.2 540.251 659.39 540.121 660.49 540.031L663.49 539.741C666.14 539.481 667.71 539.321 667.84 539.321C673.293 539.166 678.729 538.638 684.11 537.741C689.26 536.741 693.96 535.131 695.18 532.461C695.411 531.898 695.497 531.285 695.43 530.681C695.154 528.982 694.444 527.384 693.37 526.041C688.67 519.731 677.75 514.321 676.95 513.931C676.927 513.923 676.903 513.923 676.88 513.931L676.66 513.771L611.66 463.271H611.59C611.59 463.271 621.38 358.831 710.59 384.531C710.59 384.531 711.01 384.821 711.78 385.461C715.26 388.141 726.21 397.021 742.31 413.611C742.73 414.061 743.18 414.511 743.63 414.991C745.34 416.731 747.02 418.541 748.69 420.311C759.99 432.391 773.36 447.781 788.11 466.971L788.21 467.071C805.11 489.071 817.29 509.231 825.21 527.071V527.131C833.78 546.521 837.39 563.131 836.68 576.381C836.702 576.617 836.709 576.854 836.7 577.091ZM567.63 397.581C564.99 367.151 579.8 356.131 580.63 355.521C559.57 393.621 598.63 452.021 600 454.281C598.88 453.341 570.27 428.001 567.63 397.581Z" fill="#ED3FF1"/>
<path d="M511.69 391.611C510.594 392.417 509.452 393.158 508.27 393.831L501.41 381.831C517.23 373.741 521.67 359.481 514.71 351.651C512.764 349.509 510.255 347.957 507.47 347.171C500.47 345.051 495.62 348.171 492.33 352.361C489.645 356.003 487.676 360.123 486.53 364.501L483.19 325.981L482.93 322.981C482.93 322.981 475.65 319.371 455.93 322.591C436.21 325.811 432.58 336.701 424.11 331.871C415.64 327.041 410.84 327.431 410.84 327.431C408.43 336.281 401.98 336.281 401.98 336.281C400.452 336.096 398.951 335.731 397.51 335.191C388.36 326.781 385.88 312.191 385.88 312.191C395.48 311.001 396.22 301.761 395.12 294.191C400.44 297.351 407.94 297.571 418.47 290.811C448.68 271.491 479.66 281.951 490.55 283.561C495.41 284.271 500.73 282.561 505.14 280.561C505.71 281.582 506.503 282.46 507.46 283.131C514.811 288.252 520.874 295.009 525.17 302.871C553.52 355.861 522.44 384.001 511.69 391.611Z" fill="black"/>
<path d="M398.52 626.939H409.92C414.796 626.934 419.47 624.994 422.918 621.547C426.365 618.099 428.305 613.425 428.31 608.549V595.789C428.31 594.626 428.081 593.474 427.635 592.4C427.19 591.325 426.537 590.349 425.714 589.527C424.891 588.705 423.915 588.054 422.84 587.61C421.765 587.165 420.613 586.938 419.45 586.939H351.27C351.273 589.655 350.739 592.345 349.701 594.854C348.663 597.364 347.139 599.644 345.218 601.564C343.297 603.484 341.016 605.006 338.506 606.044C335.996 607.081 333.306 607.613 330.59 607.609H84.22C84.223 612.735 86.26 617.65 89.885 621.274C93.509 624.899 98.424 626.936 103.55 626.939H437.55C437.986 626.94 438.419 626.855 438.822 626.689C439.225 626.522 439.592 626.278 439.901 625.969C440.209 625.661 440.454 625.294 440.62 624.891C440.786 624.488 440.871 624.055 440.87 623.619V602.909C440.87 598.885 442.468 595.027 445.313 592.182C448.158 589.337 452.017 587.739 456.04 587.739C460.063 587.739 463.922 589.337 466.767 592.182C469.612 595.027 471.21 598.885 471.21 602.909V623.619C471.209 624.054 471.293 624.486 471.459 624.889C471.625 625.291 471.868 625.657 472.176 625.966C472.483 626.274 472.849 626.519 473.251 626.686C473.653 626.853 474.084 626.939 474.52 626.939H880C880 626.939 867.62 450.349 753.84 364.459C643.73 281.339 540.64 321.399 534.1 324.079L533.78 324.199" stroke="black" stroke-width="4.83" stroke-miterlimit="10"/>
<path d="M420.09 367.3C420.086 368.41 419.753 369.495 419.134 370.416C418.514 371.337 417.636 372.055 416.609 372.477C415.582 372.9 414.454 373.009 413.365 372.79C412.276 372.572 411.277 372.036 410.493 371.251C409.708 370.465 409.174 369.464 408.958 368.375C408.741 367.286 408.852 366.158 409.277 365.132C409.701 364.106 410.42 363.229 411.342 362.611C412.265 361.993 413.35 361.662 414.46 361.66C414.895 361.662 415.328 361.716 415.75 361.82C415.168 362.004 414.66 362.369 414.3 362.862C413.94 363.355 413.747 363.95 413.75 364.56C413.747 364.943 413.82 365.323 413.965 365.678C414.109 366.032 414.322 366.355 414.592 366.627C414.861 366.899 415.182 367.116 415.535 367.264C415.888 367.412 416.267 367.489 416.65 367.49C417.35 367.476 418.024 367.218 418.553 366.759C419.083 366.301 419.436 365.671 419.55 364.98C419.895 365.706 420.079 366.497 420.09 367.3Z" fill="black"/>
<path d="M459.1 368.868C459.102 369.984 458.773 371.076 458.154 372.005C457.536 372.933 456.656 373.658 455.625 374.086C454.595 374.515 453.461 374.628 452.366 374.411C451.271 374.195 450.265 373.658 449.475 372.87C448.686 372.082 448.148 371.077 447.929 369.982C447.711 368.888 447.822 367.754 448.248 366.722C448.675 365.691 449.398 364.81 450.326 364.19C451.253 363.569 452.344 363.238 453.46 363.238C453.729 363.236 453.998 363.267 454.26 363.328C453.761 363.558 453.339 363.926 453.043 364.389C452.746 364.851 452.589 365.389 452.59 365.938C452.556 366.708 452.828 367.459 453.347 368.027C453.867 368.595 454.591 368.934 455.36 368.968C456.129 369.003 456.88 368.73 457.449 368.211C458.017 367.691 458.356 366.968 458.39 366.198C458.852 367.013 459.096 367.932 459.1 368.868Z" fill="black"/>
<path d="M504.09 272.641C503.44 277.021 504.25 280.861 507.47 283.141C514.821 288.262 520.884 295.019 525.18 302.881C559 366.071 508.27 393.881 508.27 393.881L501.41 381.881C521.16 371.801 523.18 352.061 507.47 347.221C491.76 342.381 486.53 364.551 486.53 364.551L482.93 323.001C482.93 323.001 475.65 319.391 455.93 322.611C436.21 325.831 432.58 336.721 424.11 331.891C415.64 327.061 410.84 327.451 410.84 327.451C408.43 336.301 401.98 336.301 401.98 336.301C383.08 333.891 378.64 307.741 378.64 307.741C388.23 306.541 388.97 297.301 387.88 289.741C393.19 292.901 400.7 293.131 411.23 286.361C441.44 267.041 472.42 277.511 483.3 279.121C490.82 280.211 499.45 275.611 504.09 272.641Z" stroke="black" stroke-width="4.83" stroke-linecap="round" stroke-linejoin="round"/>
<path d="M521.53 586L529 583L534.6 598.11L533.72 625.53L526.15 626.9L497.42 625.66C497.42 625.66 499.42 608.94 505.53 600.99C511.64 593.04 521.53 586 521.53 586Z" fill="#ED3FF1"/>
<path d="M390.72 345.541C390.72 345.541 398.37 331.811 414.47 333.241" stroke="black" stroke-width="4.83" stroke-miterlimit="10"/>
<path d="M446 333.238C446 333.238 464.4 329.108 470.84 339.338" stroke="black" stroke-width="4.83" stroke-miterlimit="10"/>
<path d="M474.51 395.4C474.51 395.4 463.51 389.03 455.46 399.74" stroke="black" stroke-width="4.83" stroke-miterlimit="10"/>
<path d="M405 335.441C405 335.441 397.17 427.551 455.56 425.851C465.56 425.561 475.5 418.991 485 408.421" stroke="black" stroke-width="4.83" stroke-miterlimit="10"/>
<path d="M508.27 416.799L485 408.419C485 408.419 490.77 426.859 519.35 428.269C547.93 429.679 557.52 364.089 536.52 337.699" stroke="black" stroke-width="4.83" stroke-linejoin="round"/>
<path d="M599.25 601.578C599.25 601.578 577.92 618.888 592.41 626.938" stroke="black" stroke-width="4.83" stroke-miterlimit="10"/>
<path d="M582.75 585.469C582.75 585.469 545.75 606.409 577.52 626.939" stroke="black" stroke-width="4.83" stroke-miterlimit="10"/>
<path d="M570.27 569.371C570.27 569.371 521.16 592.371 559 626.941" stroke="black" stroke-width="4.83" stroke-miterlimit="10"/>
<path d="M776.79 626.939C776.79 626.939 836.37 626.939 837.17 569.369C837.97 511.799 721.64 367.239 646.36 347.129C571.08 327.019 567.85 382.129 567.85 384.389C567.85 386.649 563.43 410.389 582.75 435.719C597.67 455.299 663.57 504.179 692.81 525.419C693.884 526.201 694.695 527.29 695.135 528.544C695.574 529.797 695.622 531.154 695.271 532.435C694.921 533.716 694.188 534.86 693.172 535.715C692.155 536.569 690.902 537.094 689.58 537.219L560.26 549.639H560.18C558.96 549.859 513.32 558.279 499.42 572.579C499.42 572.579 491.63 578.349 495.66 587.209C499.69 596.069 512.07 593.149 512.41 592.819" stroke="black" stroke-width="4.83" stroke-miterlimit="10"/>
<path opacity="0.26" d="M453.47 379.329C462.362 379.329 469.57 372.121 469.57 363.229C469.57 354.337 462.362 347.129 453.47 347.129C444.578 347.129 437.37 354.337 437.37 363.229C437.37 372.121 444.578 379.329 453.47 379.329Z" fill="white"/>
<path opacity="0.26" d="M412.61 377.739C421.502 377.739 428.71 370.531 428.71 361.639C428.71 352.747 421.502 345.539 412.61 345.539C403.718 345.539 396.51 352.747 396.51 361.639C396.51 370.531 403.718 377.739 412.61 377.739Z" fill="white"/>
<path d="M551.78 583.461C546.12 581.881 536.87 580.461 527.34 583.521C522.68 585.022 518.38 587.47 514.71 590.711C513.91 591.411 513.14 592.121 512.4 592.831C510.805 594.395 509.299 596.047 507.89 597.781C507.705 598.01 507.441 598.163 507.15 598.211C503.6 598.701 480.23 602.401 480.35 614.211C480.46 624.821 492.08 626.561 496.08 626.841C496.245 626.856 496.411 626.837 496.568 626.785C496.725 626.732 496.87 626.648 496.993 626.537C497.116 626.426 497.215 626.291 497.283 626.14C497.352 625.99 497.388 625.826 497.39 625.661C497.39 621.881 498.25 610.031 507.6 598.111" stroke="black" stroke-width="4.83" stroke-miterlimit="10"/>
<path d="M341.22 500.109C343.96 522.199 326.79 532.189 308.02 533.669" stroke="black" stroke-width="4.83" stroke-miterlimit="10"/>
<path d="M280.74 529.06C273.583 525.194 267.786 519.222 264.133 511.954C260.481 504.685 259.15 496.47 260.32 488.42C263.32 467.17 281.32 450.87 298.94 440.53C335.94 418.82 419.32 434.53 433.33 437.73C444.07 440.19 453.05 431.79 456.69 427.73C456.845 427.558 457.045 427.433 457.268 427.372C457.491 427.31 457.727 427.314 457.948 427.382C458.169 427.451 458.366 427.581 458.515 427.758C458.664 427.935 458.76 428.15 458.79 428.38C466.48 473.38 555.79 534.46 576.45 548.13" stroke="black" stroke-width="4.83" stroke-miterlimit="10"/>
<path d="M363.75 484.832L334.18 503.182C332.418 504.279 330.445 504.995 328.39 505.283C326.334 505.571 324.241 505.424 322.245 504.853C320.249 504.282 318.395 503.299 316.803 501.968C315.21 500.636 313.915 498.985 313 497.122C311.351 493.775 311.024 489.93 312.084 486.353C313.144 482.775 315.514 479.729 318.72 477.822L363.72 451.012" stroke="black" stroke-width="4.83" stroke-miterlimit="10"/>
<path d="M453.47 379.329C462.362 379.329 469.57 372.121 469.57 363.229C469.57 354.337 462.362 347.129 453.47 347.129C444.578 347.129 437.37 354.337 437.37 363.229C437.37 372.121 444.578 379.329 453.47 379.329Z" stroke="black" stroke-width="4.83" stroke-miterlimit="10"/>
<path d="M412.61 375.329C420.171 375.329 426.3 369.2 426.3 361.639C426.3 354.078 420.171 347.949 412.61 347.949C405.049 347.949 398.92 354.078 398.92 361.639C398.92 369.2 405.049 375.329 412.61 375.329Z" stroke="white" stroke-width="4.83" stroke-miterlimit="10"/>
<path d="M412.61 377.739C421.502 377.739 428.71 370.531 428.71 361.639C428.71 352.747 421.502 345.539 412.61 345.539C403.718 345.539 396.51 352.747 396.51 361.639C396.51 370.531 403.718 377.739 412.61 377.739Z" stroke="black" stroke-width="4.83" stroke-miterlimit="10"/>
<path d="M437.45 361.641H428.71" stroke="black" stroke-width="4.83" stroke-miterlimit="10"/>
<path d="M437.45 384.391H431.69C431.328 384.391 430.97 384.312 430.642 384.158C430.314 384.004 430.024 383.779 429.793 383.5C429.561 383.221 429.395 382.895 429.304 382.544C429.214 382.193 429.202 381.827 429.27 381.471L433.08 361.641" stroke="black" stroke-width="4.83" stroke-miterlimit="10"/>
<path d="M321.88 439.34C321.88 439.34 301.35 443.77 294.11 474.77C289.71 493.59 283.67 517.6 279.61 533.56C279.089 535.607 279.043 537.746 279.474 539.814C279.906 541.882 280.805 543.824 282.101 545.492C283.398 547.16 285.058 548.51 286.955 549.438C288.853 550.367 290.937 550.85 293.05 550.85C296.204 550.85 299.265 549.776 301.726 547.803C304.188 545.831 305.903 543.078 306.59 540L315.18 501.46" stroke="black" stroke-width="4.83" stroke-miterlimit="10"/>
<path d="M340.65 511.802C340.65 511.802 362.2 498.922 404.65 511.802C447.1 524.682 495.9 533.422 512 499.262" stroke="black" stroke-width="4.83" stroke-miterlimit="10"/>
<path d="M527.35 583.52C527.35 583.52 542.35 600.64 533.23 626.94" stroke="black" stroke-width="4.83" stroke-miterlimit="10"/>
<path d="M31.68 370.629H268.68C276.314 370.619 283.729 373.178 289.731 377.894C295.733 382.611 299.974 389.21 301.77 396.629L339.5 552.889C340.518 557.105 340.566 561.498 339.641 565.735C338.716 569.973 336.841 573.946 334.158 577.354C331.474 580.762 328.053 583.517 324.151 585.411C320.249 587.305 315.968 588.289 311.63 588.289H75.24C67.621 588.296 60.22 585.744 54.225 581.042C48.2304 576.34 43.9884 569.76 42.18 562.359L3.84 406.129C2.8047 401.908 2.7425 397.507 3.658 393.259C4.5735 389.011 6.4428 385.026 9.1245 381.607C11.8063 378.187 15.2304 375.422 19.1379 373.52C23.0455 371.618 27.3342 370.63 31.68 370.629Z" fill="#ED3FF1"/>
<path d="M40.31 377.352H262.67C269.833 377.361 276.786 379.773 282.415 384.203C288.045 388.632 292.026 394.822 293.72 401.782L329.14 548.372C330.096 552.327 330.143 556.447 329.275 560.423C328.408 564.399 326.65 568.126 324.133 571.323C321.616 574.521 318.407 577.105 314.746 578.882C311.085 580.659 307.069 581.582 303 581.582H81.18C74.039 581.567 67.108 579.163 61.491 574.755C55.873 570.346 51.8916 564.184 50.18 557.252L14.18 410.652C13.2079 406.691 13.1493 402.562 14.0087 398.575C14.868 394.589 16.6228 390.85 19.1402 387.642C21.6576 384.434 24.8717 381.84 28.5393 380.057C32.207 378.275 36.2321 377.349 40.31 377.352Z" fill="#ED3FF1"/>
<path d="M31.68 370.629H268.68C276.314 370.619 283.729 373.178 289.731 377.894C295.733 382.611 299.974 389.21 301.77 396.629L339.5 552.889C340.518 557.105 340.566 561.498 339.641 565.735C338.716 569.973 336.841 573.946 334.158 577.354C331.474 580.762 328.053 583.517 324.151 585.411C320.249 587.305 315.968 588.289 311.63 588.289H75.24C67.621 588.296 60.22 585.744 54.225 581.042C48.2304 576.34 43.9884 569.76 42.18 562.359L3.84 406.129C2.8047 401.908 2.7425 397.507 3.658 393.259C4.5735 389.011 6.4428 385.026 9.1245 381.607C11.8063 378.187 15.2304 375.422 19.1379 373.52C23.0455 371.618 27.3342 370.63 31.68 370.629Z" stroke="black" stroke-width="4.83" stroke-miterlimit="10"/>
<path d="M142.68 474.71L128.55 408.84C128.257 407.447 127.493 406.197 126.388 405.3C125.283 404.402 123.904 403.912 122.48 403.91H52.56C51.6194 403.913 50.6918 404.129 49.8472 404.543C49.0027 404.957 48.2633 405.557 47.6852 406.299C47.1071 407.041 46.7054 407.905 46.5104 408.825C46.3155 409.745 46.3324 410.698 46.56 411.61L62.91 478.25C63.113 479.179 63.546 480.042 64.17 480.76C64.73 481.472 65.443 482.047 66.257 482.444C67.071 482.841 67.965 483.048 68.87 483.05H69L136.67 482.25C137.584 482.237 138.483 482.022 139.304 481.621C140.125 481.22 140.848 480.643 141.42 479.93C142.003 479.207 142.418 478.364 142.636 477.462C142.854 476.559 142.869 475.619 142.68 474.71ZM51.23 410.43C51.1793 410.233 51.1745 410.027 51.2161 409.827C51.2577 409.628 51.3446 409.441 51.47 409.28C51.5983 409.113 51.7633 408.977 51.9523 408.884C52.1412 408.79 52.3491 408.741 52.56 408.74H122.48C122.795 408.739 123.101 408.846 123.345 409.045C123.59 409.244 123.757 409.521 123.82 409.83L134.58 460C98.65 425.31 94.58 465.11 94.58 465.11C74.3 454.55 68.44 466.11 66.74 473.72L51.23 410.43Z" fill="#D7E8F0"/>
<path d="M71.42 434.341C75.32 433.131 77.17 427.961 75.57 422.791C73.97 417.621 69.5 414.421 65.57 415.631C61.64 416.841 59.82 422.011 61.43 427.171C63.04 432.331 67.53 435.551 71.42 434.341Z" fill="#D7E8F0"/>
<path d="M88.54 433.16H111.48C114.33 433.16 117.19 433.16 120.04 433.16H120.45C121.252 433.182 122.05 433.032 122.79 432.72C123.301 432.467 123.736 432.082 124.049 431.606C124.363 431.129 124.544 430.578 124.575 430.008C124.605 429.438 124.484 428.871 124.223 428.363C123.962 427.856 123.571 427.427 123.09 427.12C122.551 426.875 122.06 426.537 121.64 426.12C121.362 425.681 121.171 425.192 121.08 424.68C120.55 423.233 119.527 422.018 118.19 421.25C117.217 420.596 116.123 420.145 114.971 419.923C113.82 419.701 112.636 419.714 111.49 419.96C110.359 420.246 109.324 420.825 108.49 421.64C107.78 422.34 107.64 423.28 107.09 424.06C106.73 424.57 106.5 424.41 106.01 424.13C105.52 423.85 105.25 423.64 104.85 423.44C104.061 423.018 103.242 422.654 102.4 422.35C100.685 421.715 98.856 421.446 97.03 421.56C93.82 421.81 90.62 423.72 89.5 426.74C88.491 426.754 87.519 427.127 86.761 427.792C86.002 428.457 85.505 429.372 85.36 430.37C85.294 430.755 85.319 431.151 85.433 431.524C85.548 431.898 85.749 432.239 86.02 432.52C86.749 433.044 87.649 433.272 88.54 433.16Z" fill="#D7E8F0"/>
<path d="M253 431.738L251.16 424.168C249.926 419.079 247.017 414.553 242.899 411.317C238.782 408.081 233.697 406.324 228.46 406.328H203.19C200.307 406.325 197.462 406.987 194.876 408.263C192.291 409.539 190.035 411.394 188.283 413.685C186.532 415.975 185.333 418.639 184.779 421.468C184.225 424.297 184.332 427.217 185.09 429.998L187.18 437.688C188.515 442.636 191.444 447.005 195.513 450.12C199.583 453.235 204.565 454.921 209.69 454.918H234.81C237.647 454.916 240.447 454.269 242.998 453.027C245.549 451.784 247.785 449.979 249.536 447.747C251.288 445.515 252.51 442.914 253.11 440.141C253.71 437.368 253.672 434.495 253 431.738ZM225.21 433.608L216.58 438.918C216.248 439.129 215.871 439.261 215.479 439.302C215.087 439.343 214.691 439.293 214.322 439.155C213.953 439.018 213.621 438.796 213.351 438.509C213.082 438.221 212.883 437.875 212.77 437.498L209.52 426.878C209.384 426.407 209.384 425.906 209.521 425.435C209.658 424.964 209.926 424.541 210.293 424.217C210.661 423.892 211.114 423.678 211.598 423.601C212.083 423.523 212.579 423.585 213.03 423.778L225 429.068C225.428 429.261 225.795 429.567 226.061 429.954C226.326 430.341 226.48 430.793 226.506 431.262C226.532 431.731 226.428 432.197 226.207 432.611C225.985 433.025 225.654 433.37 225.25 433.608H225.21Z" fill="white"/>
<path d="M247.36 499.738H203.15C201.126 499.735 199.147 499.143 197.453 498.035C195.759 496.928 194.424 495.351 193.61 493.498C193.358 492.928 193.222 492.312 193.21 491.688C193.221 490.482 193.706 489.329 194.562 488.479C195.418 487.629 196.574 487.151 197.78 487.148H244.78C242.57 490.888 243.69 496.058 247.36 499.738Z" fill="#D7E8F0"/>
<path d="M276 495.198C275.997 496.402 275.518 497.555 274.667 498.406C273.817 499.257 272.663 499.736 271.46 499.738H247.36C243.69 496.058 242.57 490.888 244.78 487.148H266C268.021 487.149 269.997 487.737 271.691 488.839C273.384 489.941 274.721 491.511 275.54 493.358C275.817 493.934 275.973 494.56 276 495.198Z" fill="#ED3FF1"/>
<path d="M264.89 499.739C264.765 499.98 264.621 500.211 264.46 500.429C261.3 504.739 254.46 505.139 249.15 501.259C248.516 500.799 247.917 500.291 247.36 499.739C243.69 496.059 242.57 490.889 244.78 487.149C244.904 486.911 245.048 486.684 245.21 486.469C248.34 482.129 255.21 481.749 260.49 485.599C261.13 486.071 261.735 486.589 262.3 487.149C266 490.829 267.07 495.999 264.89 499.739Z" fill="white"/>
<path d="M287.07 523.001C287.059 524.207 286.574 525.36 285.718 526.21C284.862 527.06 283.706 527.538 282.5 527.541H107.28C109.52 523.781 108.4 518.631 104.72 514.961H277.13C279.152 514.96 281.131 515.549 282.823 516.656C284.516 517.762 285.849 519.338 286.66 521.191C286.919 521.76 287.059 522.376 287.07 523.001Z" fill="#ED3FF1"/>
<path d="M107.28 527.49H85.45C83.429 527.491 81.452 526.904 79.758 525.801C78.065 524.699 76.728 523.128 75.91 521.28C75.653 520.701 75.517 520.074 75.51 519.44C75.509 518.844 75.625 518.254 75.853 517.703C76.081 517.152 76.415 516.652 76.837 516.231C77.259 515.809 77.76 515.476 78.312 515.249C78.863 515.023 79.454 514.908 80.05 514.91H104.72C108.4 518.58 109.52 523.73 107.28 527.49Z" fill="#D7E8F0"/>
<path d="M107.28 527.49C107.177 527.736 107.043 527.968 106.88 528.18C103.75 532.52 96.88 532.89 91.59 529.04C90.953 528.568 90.351 528.05 89.79 527.49C86.14 523.81 85.02 518.67 87.2 514.91C87.321 514.667 87.465 514.436 87.63 514.22C90.79 509.91 97.63 509.51 102.94 513.38C103.574 513.841 104.169 514.353 104.72 514.91C108.4 518.58 109.52 523.73 107.28 527.49Z" fill="white"/>
<path d="M122.74 555.001H95C92.98 554.999 91.003 554.412 89.31 553.309C87.617 552.207 86.28 550.638 85.46 548.791C85.185 548.233 85.028 547.623 85 547.001C85.003 545.793 85.484 544.635 86.339 543.78C87.193 542.925 88.351 542.444 89.56 542.441H120.13C118 546.221 119.09 551.361 122.74 555.001Z" fill="#ED3FF1"/>
<path d="M296.58 550.532C296.564 551.732 296.073 552.876 295.214 553.714C294.356 554.552 293.2 555.015 292 555.002H122.74C119.09 551.322 117.97 546.182 120.15 542.422H286.64C288.662 542.421 290.641 543.01 292.333 544.117C294.026 545.223 295.359 546.799 296.17 548.652C296.435 549.244 296.574 549.884 296.58 550.532Z" fill="#D7E8F0"/>
<path d="M140.26 555.001C140.139 555.244 139.995 555.475 139.83 555.691C136.7 560.031 129.83 560.401 124.55 556.551C123.91 556.08 123.305 555.562 122.74 555.001C119.09 551.321 117.97 546.181 120.15 542.421C120.275 542.181 120.419 541.95 120.58 541.731C123.74 537.421 130.58 537.041 135.89 540.891C136.526 541.35 137.121 541.862 137.67 542.421C141.35 546.131 142.47 551.301 140.26 555.001Z" fill="white"/>
<g opacity="0.21">
<path opacity="0.21" d="M145.1 477.118L131 411.248C130.708 409.855 129.945 408.605 128.839 407.709C127.734 406.813 126.353 406.325 124.93 406.328H55C54.053 406.328 53.119 406.545 52.2694 406.963C51.4198 407.38 50.6776 407.988 50.1 408.738C49.5272 409.473 49.1303 410.329 48.9396 411.24C48.7489 412.152 48.7696 413.096 49 413.998L65.35 480.648C65.55 481.576 65.979 482.44 66.6 483.158C67.162 483.869 67.878 484.444 68.693 484.839C69.509 485.234 70.404 485.438 71.31 485.438H71.47L139.13 484.628C140.042 484.617 140.94 484.404 141.759 484.005C142.579 483.606 143.3 483.029 143.87 482.318C144.445 481.595 144.853 480.754 145.066 479.855C145.278 478.957 145.29 478.022 145.1 477.118ZM53.64 412.848C53.589 412.65 53.585 412.443 53.629 412.243C53.672 412.044 53.762 411.857 53.89 411.698C54.015 411.53 54.178 411.393 54.366 411.3C54.553 411.206 54.76 411.157 54.97 411.158H124.89C125.205 411.156 125.511 411.262 125.757 411.458C126.003 411.655 126.173 411.93 126.24 412.238L137 462.408C101.06 427.708 97 467.518 97 467.518C76.73 456.958 70.86 468.518 69.17 476.128L53.64 412.848Z" fill="#D7E8F0"/>
<path opacity="0.21" d="M73.84 436.75C77.73 435.54 79.59 430.37 77.98 425.21C76.37 420.05 71.92 416.83 67.98 418.04C64.04 419.25 62.23 424.42 63.83 429.59C65.43 434.76 70 438 73.84 436.75Z" fill="#D7E8F0"/>
<path opacity="0.21" d="M91 435.577H113.93C116.79 435.577 119.64 435.577 122.5 435.577H122.9C123.703 435.6 124.5 435.45 125.24 435.137C125.754 434.886 126.191 434.502 126.506 434.026C126.822 433.549 127.005 432.996 127.035 432.426C127.066 431.855 126.943 431.286 126.68 430.778C126.418 430.27 126.024 429.842 125.54 429.537C125.006 429.284 124.517 428.946 124.09 428.537C123.82 428.091 123.631 427.6 123.53 427.087C123 425.645 121.981 424.435 120.65 423.667C119.677 423.011 118.58 422.558 117.427 422.336C116.274 422.114 115.088 422.128 113.94 422.377C112.828 422.665 111.813 423.245 111 424.057C110.28 424.757 110.15 425.687 109.6 426.477C109.24 426.987 109.01 426.827 108.52 426.537C108.03 426.247 107.76 426.057 107.36 425.847C106.571 425.428 105.752 425.068 104.91 424.767C103.195 424.13 101.366 423.857 99.54 423.967C96.33 424.217 93.13 426.137 92 429.147C90.991 429.164 90.021 429.539 89.264 430.206C88.507 430.873 88.013 431.789 87.87 432.787C87.805 433.172 87.831 433.566 87.943 433.939C88.056 434.311 88.253 434.653 88.52 434.937C89.242 435.443 90.123 435.671 91 435.577Z" fill="#D7E8F0"/>
<path opacity="0.21" d="M255.46 434.148L253.62 426.588C252.384 421.497 249.473 416.97 245.355 413.732C241.236 410.495 236.149 408.736 230.91 408.738H205.6C202.72 408.736 199.879 409.398 197.296 410.673C194.713 411.947 192.459 413.799 190.709 416.086C188.958 418.372 187.758 421.032 187.201 423.857C186.645 426.683 186.747 429.599 187.5 432.378L189.59 440.078C190.927 445.027 193.858 449.397 197.929 452.511C202 455.626 206.984 457.312 212.11 457.308H237.23C240.068 457.309 242.869 456.666 245.422 455.427C247.975 454.188 250.214 452.385 251.969 450.155C253.725 447.925 254.951 445.326 255.555 442.553C256.16 439.781 256.128 436.907 255.46 434.148ZM227.66 435.998L219 441.338C218.668 441.55 218.292 441.681 217.901 441.722C217.51 441.763 217.115 441.713 216.746 441.575C216.378 441.438 216.046 441.216 215.778 440.929C215.51 440.641 215.312 440.295 215.2 439.918L212 429.288C211.866 428.818 211.868 428.319 212.006 427.849C212.144 427.38 212.412 426.959 212.78 426.635C213.147 426.312 213.598 426.099 214.082 426.022C214.565 425.945 215.06 426.006 215.51 426.198L227.39 431.478C227.812 431.673 228.172 431.979 228.434 432.363C228.696 432.746 228.849 433.194 228.876 433.658C228.904 434.121 228.806 434.584 228.591 434.996C228.377 435.408 228.055 435.754 227.66 435.998Z" fill="#F30C0C"/>
<path opacity="0.21" d="M249.78 502.147H205.57C203.548 502.143 201.57 501.552 199.876 500.446C198.183 499.341 196.847 497.767 196.03 495.917C195.718 495.226 195.586 494.468 195.646 493.713C195.705 492.958 195.955 492.23 196.371 491.596C196.786 490.963 197.355 490.445 198.025 490.09C198.694 489.735 199.442 489.555 200.2 489.567H247.2C245 493.297 246.1 498.477 249.78 502.147Z" fill="#D7E8F0"/>
<path opacity="0.21" d="M278.36 497.606C278.36 498.809 277.883 499.962 277.034 500.813C276.185 501.664 275.032 502.144 273.83 502.146H249.78C246.1 498.476 244.98 493.296 247.19 489.566H268.42C270.441 489.565 272.419 490.151 274.113 491.254C275.807 492.356 277.143 493.928 277.96 495.776C278.216 496.353 278.352 496.976 278.36 497.606Z" fill="#ED3FF1"/>
<path opacity="0.21" d="M267.3 502.148C267.182 502.393 267.038 502.624 266.87 502.838C263.71 507.148 256.87 507.548 251.56 503.678C250.928 503.214 250.333 502.703 249.78 502.148C246.1 498.478 244.98 493.298 247.19 489.568C247.315 489.325 247.462 489.094 247.63 488.878C250.76 484.538 257.63 484.168 262.91 488.018C263.551 488.489 264.156 489.007 264.72 489.568C268.37 493.248 269.49 498.388 267.3 502.148Z" fill="white"/>
<path opacity="0.21" d="M289.48 525.366C289.469 526.571 288.983 527.724 288.127 528.572C287.272 529.42 286.115 529.896 284.91 529.896H109.7C111.94 526.136 110.82 520.996 107.14 517.316H279.54C281.565 517.316 283.546 517.906 285.24 519.015C286.935 520.123 288.269 521.701 289.08 523.556C289.337 524.126 289.473 524.742 289.48 525.366Z" fill="#ED3FF1"/>
<path opacity="0.21" d="M109.7 529.896H87.86C85.841 529.895 83.865 529.309 82.172 528.209C80.479 527.108 79.141 525.541 78.32 523.696C78.069 523.115 77.933 522.49 77.92 521.856C77.92 520.652 78.398 519.498 79.25 518.646C80.101 517.795 81.256 517.316 82.46 517.316H107.14C110.82 520.996 111.94 526.136 109.7 529.896Z" fill="#D7E8F0"/>
<path opacity="0.21" d="M109.7 529.899C109.597 530.147 109.459 530.38 109.29 530.589C106.16 534.929 99.29 535.309 94.01 531.459C93.369 530.984 92.764 530.462 92.2 529.899C88.55 526.229 87.43 521.079 89.62 517.319C89.738 517.074 89.882 516.842 90.05 516.629C93.21 512.319 100.05 511.919 105.36 515.799C105.989 516.262 106.584 516.77 107.14 517.319C110.82 520.999 111.94 526.139 109.7 529.899Z" fill="white"/>
<path opacity="0.21" d="M125.15 557.447H97.37C95.351 557.443 93.377 556.856 91.684 555.756C89.992 554.656 88.653 553.09 87.83 551.247C87.579 550.676 87.443 550.061 87.43 549.437C87.435 548.227 87.918 547.067 88.774 546.212C89.63 545.356 90.79 544.872 92 544.867H122.57C120.38 548.627 121.5 553.777 125.15 557.447Z" fill="#ED3FF1"/>
<path opacity="0.21" d="M299 552.937C298.999 553.532 298.88 554.12 298.651 554.668C298.422 555.217 298.087 555.715 297.666 556.134C297.244 556.553 296.744 556.885 296.194 557.11C295.644 557.335 295.054 557.45 294.46 557.447H125.15C121.5 553.777 120.38 548.627 122.57 544.867H289.05C291.075 544.867 293.056 545.457 294.75 546.565C296.444 547.674 297.779 549.252 298.59 551.107C298.85 551.683 298.989 552.306 299 552.937Z" fill="#D7E8F0"/>
<path opacity="0.21" d="M142.68 557.449C142.555 557.692 142.408 557.923 142.24 558.139C139.11 562.479 132.24 562.859 126.96 559.009C126.319 558.534 125.714 558.013 125.15 557.449C121.5 553.779 120.38 548.629 122.57 544.869C122.688 544.624 122.832 544.393 123 544.179C126.16 539.869 133 539.499 138.31 543.349C138.939 543.812 139.534 544.32 140.09 544.869C143.77 548.549 144.89 553.719 142.68 557.449Z" fill="white"/>
</g>
</svg>
