<svg width="603" height="441" viewBox="0 0 603 441" fill="none" xmlns="http://www.w3.org/2000/svg">
<path fill-rule="evenodd" clip-rule="evenodd" d="M417.912 4.952C482.445 -9.493 542.232 7.646 574.366 56.601C606.5 105.555 598.094 183.237 591.133 217.526C584.172 251.815 566.514 283.221 544.598 310.487C503.892 361.129 448.883 399.883 387.387 420.803C325.891 441.722 259.123 446.012 195.037 435.429C159.087 429.492 46.633 400.408 22.3581 312.64C-1.91663 224.872 -17.2795 149.858 35.288 119.387C87.855 88.915 124.267 111.834 150.29 123.104C271.869 175.757 353.38 19.398 417.912 4.952Z" fill="#64FCD9"/>
<path fill-rule="evenodd" clip-rule="evenodd" d="M508.783 87.161C519.135 86.361 530.294 86.878 538.73 92.931C547.166 98.984 550.998 112.276 544.071 120.01C551.902 116.948 561.106 122.141 565.029 129.579C568.952 137.016 568.747 145.927 567.567 154.253C564.644 174.871 556.239 194.687 543.446 211.118C542.858 212.85 542.27 214.583 541.682 216.315C556.803 220.213 615.849 243.144 599.895 299.674C583.941 356.204 514.267 377.72 507.135 384.486C494.704 396.279 475.731 397.085 458.605 396.541C416.497 395.205 374.517 389.854 333.421 380.583C329.927 379.795 325.501 379.315 323.487 382.277C308.908 403.711 278.423 405.627 252.569 403.761C219.358 401.365 186.338 396.328 153.924 388.714C135.538 384.395 116.013 378.382 104.559 363.365C91.206 345.858 92.748 321.585 94.915 299.674C86.138 304.554 71.581 307.197 51.245 307.603C39.271 305.161 31.8025 300.82 28.8384 294.582C15.284 266.053 10.636 229.291 27.5149 201.171C29.5425 197.793 31.882 194.464 35.184 192.315C38.684 190.036 42.951 189.287 47.112 188.918C63.522 187.465 80.359 191.295 94.525 199.705C94.399 153.662 94.272 107.619 94.146 61.576C94.139 58.939 94.175 56.141 95.581 53.91C97.614 50.684 101.779 49.684 105.528 48.984C139.631 42.618 174.12 38.324 208.742 36.135C220.055 35.42 235.536 38.568 235.588 49.903C235.785 93.312 235.982 136.721 236.18 180.13C236.227 190.462 236.891 189.598 241.731 186.604C238.688 186.92 239.367 181.759 241.673 179.748C250.282 172.244 262.826 171.968 274.246 172.084C299.79 172.346 325.333 172.607 350.877 172.869C375.626 173.122 405.307 176.261 416.512 198.33C416.186 191.771 422.131 185.582 428.698 185.642C435.859 185.708 441.849 179.495 443.939 172.645C446.029 165.795 445.107 158.435 444.166 151.335C432.619 140.154 429.596 121.147 437.105 106.935C444.614 92.723 462.019 84.508 477.763 87.746C487.933 89.837 498.432 87.96 508.783 87.161ZM212.387 300.093C212.047 309.233 211.687 318.495 208.997 327.236L212.387 300.093ZM201.804 187.93C204.181 188.626 207.123 190.734 205.875 192.873C216.203 193.905 213.119 193.427 213.583 181.257C214.055 168.907 214.094 155.252 206.009 145.905C198.855 137.634 187.187 135.047 176.291 134.117C163.574 133.031 150.719 133.553 138.131 135.666C131.989 136.697 125.336 138.473 121.772 143.58C119.777 146.439 119.043 149.969 118.457 153.405C116.152 166.92 115.432 180.705 116.317 194.387C142.795 182.068 173.775 179.728 201.804 187.93ZM431.596 278.665C432.243 278.011 433.224 277.852 434.135 277.727C437.774 277.226 441.413 276.726 445.051 276.225C436.7 272.454 431.639 263.494 430.127 254.457C428.615 245.42 430.091 236.18 431.583 227.139C426.241 233.083 426.626 242.052 427.326 250.013C428.857 267.438 430.949 279.319 431.596 278.665ZM362.893 364.493C363.609 362.165 366.045 360.915 367.829 359.257C371.04 356.273 372.232 351.762 373.28 347.505C376.899 332.796 380.541 317.908 380.495 302.76C380.486 299.551 380.323 296.254 381.385 293.226C382.448 290.198 385.111 287.459 388.32 287.444C391.704 287.427 392.512 282.733 392.209 279.363C391.166 267.742 390.123 256.12 389.08 244.499C388.747 240.787 388.407 237.041 387.28 233.488C383.116 220.355 367.067 212.413 354.1 217.07C352.512 217.64 352.088 219.645 351.908 221.322C349.912 239.911 347.916 258.5 345.92 277.089C345.565 280.391 349.83 282.499 353.049 281.681C356.269 280.863 358.727 278.348 361.51 276.535C364.294 274.723 368.218 273.68 370.774 275.801C373.663 278.199 377.94 275.535 380.449 272.743C382.959 269.951 386.227 266.585 389.796 267.75C385.609 271.754 381.423 275.759 377.236 279.763C375.848 281.092 374.623 283.744 376.378 284.528C381.188 282.822 385.537 279.832 388.852 275.952C390.385 275.903 390.457 278.31 389.602 279.583C386.379 284.38 378.793 285.448 376.839 290.887C372.28 303.582 358.062 312.014 344.736 309.926C342.002 309.498 340.64 313.094 340.311 315.841C338.999 326.795 337.687 337.749 336.375 348.703C336.074 351.223 335.792 353.888 336.829 356.204C338.561 360.069 343.191 361.531 347.296 362.571C352.722 363.946 358.211 365.327 363.757 365.928C366.092 366.181 366.083 365.325 362.893 364.493ZM146.719 344.409C154.472 347.006 162.678 347.886 170.809 348.749C174.257 349.116 177.929 349.444 181.022 347.877C184.663 346.033 186.603 342.036 188.169 338.267C196.902 317.247 201.888 294.678 202.822 271.935C202.955 268.704 198.818 267.277 195.591 267.06C169.829 265.331 145.191 276.656 121.859 287.715C120.741 288.245 119.544 288.85 118.992 289.957C118.58 290.783 118.601 291.749 118.632 292.671C119.05 305.235 119.577 318.249 125.196 329.495C126.714 332.532 128.644 335.454 131.377 337.469C133.032 338.689 134.927 339.536 136.806 340.372C140.066 341.824 143.334 343.276 146.719 344.409ZM313.376 297.91C316.81 279.443 319.23 260.787 320.622 242.055C321.098 235.646 321.446 229.132 320.061 222.857C318.676 216.582 315.334 210.482 309.87 207.1C306.503 205.016 302.561 204.081 298.663 203.386C291.55 202.117 284.313 201.541 277.088 201.669C270.713 201.782 264.021 202.559 258.817 206.243C257.096 207.461 255.533 209.056 254.904 211.069C254.275 213.081 254.805 215.554 256.551 216.736C260.963 219.725 262.762 225.316 263.589 230.581C264.416 235.845 264.615 241.358 267.014 246.117C268.251 248.571 270.025 250.712 271.886 252.735C281.973 263.703 295.131 271.817 309.46 275.906C311.979 276.625 315.184 278.181 314.652 280.746C322.576 285.745 313.244 298.619 313.376 297.91ZM291.536 352.379C294.453 350.606 296.432 347.655 298.174 344.719C305.563 332.259 310.409 318.298 312.327 303.939C285.747 303.819 259.325 293.791 239.359 276.243C238.676 278.986 238.807 281.856 238.9 284.681C239.483 302.316 238.436 320.005 235.778 337.448C235.145 341.606 237.629 345.764 241.044 348.22C244.459 350.675 248.666 351.73 252.796 352.526C262.107 354.319 271.622 355.055 281.098 354.713C284.701 354.583 288.454 354.251 291.536 352.379ZM459.265 200.264C457.716 196.53 456.553 192.32 453.339 189.869C450.124 187.417 444.072 188.617 443.883 192.655C447.064 192.069 449.496 195.996 448.954 199.185C448.412 202.374 446.093 204.909 444.251 207.568C441.706 211.242 439.966 215.402 438.244 219.526C434.147 229.339 432.552 240.185 433.651 250.762C434.298 256.989 436.005 263.386 440.216 268.019C444.426 272.652 451.644 274.969 457.192 272.069C461.958 269.578 464.335 264.087 465.428 258.822C466.521 253.557 466.715 248.046 468.78 243.081C472.589 233.921 481.982 228.388 491.274 224.914C477.306 223.016 464.668 213.284 459.265 200.264ZM420.639 210.172C421.26 212.573 422.12 214.912 423.202 217.144C423.852 213.999 424.895 210.936 426.299 208.048C424.878 207.886 423.448 207.809 422.019 207.817C421.671 207.819 421.304 207.832 421.011 208.018C420.351 208.437 420.443 209.415 420.639 210.172ZM252.272 207.7C251.393 208.408 250.877 209.932 251.805 210.574C253.227 209.15 254.649 207.726 256.071 206.303C255.777 205.938 255.35 205.684 254.889 205.6C254.325 206.578 253.152 206.993 252.272 207.7Z" fill="white"/>
<path d="M498.5 197.5C501.538 197.5 504 195.038 504 192C504 188.962 501.538 186.5 498.5 186.5C495.462 186.5 493 188.962 493 192C493 195.038 495.462 197.5 498.5 197.5Z" fill="#FFB61D"/>
<path d="M467 192C468.657 192 470 190.657 470 189C470 187.343 468.657 186 467 186C465.343 186 464 187.343 464 189C464 190.657 465.343 192 467 192Z" fill="#FFB61D"/>
<path fill-rule="evenodd" clip-rule="evenodd" d="M182.926 113.078C191.926 113.135 200.925 113.192 209.925 113.249C210.347 113.252 210.799 113.264 211.139 113.513C211.833 114.023 211.556 115.217 210.841 115.697C210.127 116.177 209.2 116.157 208.339 116.127C200.419 115.852 192.475 116.264 184.626 117.355C183.432 117.521 182.173 117.695 181.056 117.242C179.94 116.788 179.086 115.451 179.6 114.361C180.137 113.222 181.667 113.07 182.926 113.078ZM152.83 112.194C153.4 112.762 153.127 113.806 152.493 114.303C151.86 114.8 151.011 114.899 150.21 114.98C142.231 115.788 134.252 116.596 126.274 117.404C125.33 117.5 124.354 117.592 123.452 117.301C122.549 117.011 121.732 116.23 121.711 115.282C121.689 114.304 122.519 113.473 123.447 113.161C124.374 112.849 125.381 112.936 126.357 113.013C134.532 113.656 142.787 113.285 150.871 111.912C151.549 111.796 152.343 111.709 152.83 112.194ZM151.712 96.878C152.308 97.359 152.096 98.39 151.498 98.869C150.9 99.348 150.086 99.427 149.322 99.487L123.698 101.509C122.739 101.584 121.745 101.656 120.841 101.329C119.936 101.001 119.142 100.158 119.194 99.197C119.247 98.224 120.146 97.469 121.093 97.239C122.04 97.009 123.032 97.181 123.996 97.324C132.693 98.609 141.536 97.437 150.291 96.641C150.782 96.596 151.328 96.568 151.712 96.878ZM187.498 91.801C192.844 92.484 198.264 92.588 203.633 92.111C205.768 91.921 208.348 91.832 209.56 93.598C208.121 94.762 206.143 94.927 204.296 95.044C198.173 95.429 192.051 95.815 185.929 96.201C184.532 96.289 182.791 96.183 182.216 94.908C181.7 93.763 182.608 92.386 183.775 91.923C184.942 91.459 186.252 91.642 187.498 91.801ZM141.309 85.256C141.315 86.18 140.156 86.579 139.241 86.714L125.786 88.686C124.825 88.827 123.833 88.966 122.895 88.715C121.957 88.465 121.08 87.719 120.993 86.752C120.885 85.569 121.996 84.57 123.156 84.312C124.316 84.054 125.518 84.324 126.697 84.476C130.761 84.999 134.861 84.106 138.957 83.965C139.959 83.931 141.301 84.253 141.309 85.256ZM206.234 82.035C207.276 82.151 208.344 82.772 208.622 83.782C206.773 85.181 204.329 85.435 202.02 85.64C198.068 85.99 194.115 86.34 190.163 86.691C188.77 86.814 187.378 86.938 185.986 87.061C184.968 87.151 183.909 87.236 182.952 86.875C181.996 86.514 181.179 85.565 181.322 84.553C181.546 82.958 183.64 82.544 185.25 82.578C191.225 82.707 197.274 83.609 203.128 82.406C204.154 82.195 205.193 81.918 206.234 82.035ZM211.483 66.947C182.196 70.896 152.169 68.851 123.285 75.099C121.572 75.469 119.181 75.488 118.738 73.792C118.778 71.794 121.362 71.073 123.355 70.931C151.454 68.927 179.552 66.923 207.65 64.919C209.299 64.801 211.612 65.3 211.483 66.947Z" fill="#E7EAEE"/>
<path fill-rule="evenodd" clip-rule="evenodd" d="M108.462 370.529C108.768 374.072 103.884 375.272 100.327 375.286C81.844 375.359 63.379 378.788 46.102 385.354C43.465 386.356 40.643 387.619 39.36 390.131C37.66 393.457 39.515 397.714 42.521 399.93C45.528 402.147 49.365 402.823 53.052 403.423C148.879 419.027 246.131 425.867 343.199 423.83L344.76 423.795C355.955 423.537 367.38 422.935 377.636 418.502C369.146 412.551 360.656 406.601 352.165 400.65C366.863 397.714 382.028 399.805 396.943 401.278C431.08 404.648 465.543 404.716 499.693 401.483C497.289 405.325 492.003 405.858 487.472 405.955C444.515 406.88 401.505 405.354 358.721 401.387C364.303 405.06 369.885 408.734 375.467 412.407C377.49 413.738 379.728 415.428 379.844 417.847C380.02 421.482 375.554 423.295 371.964 423.889C360.05 425.857 347.93 426.171 335.856 426.347C241.557 427.726 147.141 420.978 53.997 406.204C49.452 405.483 44.743 404.678 40.953 402.068C37.163 399.457 34.5798 394.493 36.172 390.176C37.756 385.881 42.576 383.865 46.927 382.443C66.838 375.94 87.562 371.927 108.462 370.529ZM235.588 49.903C235.785 93.312 235.982 136.721 236.18 180.13C236.227 190.462 238.262 203.536 248.254 206.167C262.06 199.794 277.622 197.276 292.734 198.971C301.385 199.941 310.368 202.556 316.225 208.997C324.258 217.831 324.27 231.137 323.408 243.047C321.66 267.188 318.216 291.207 313.111 314.867C317.167 314.611 321.304 316.238 324.098 319.189C319.794 321.157 314.667 321.24 310.302 319.41C313.3 335.661 300.061 351.693 284.206 356.348C268.351 361.004 251.146 356.614 236.237 349.489C234.838 354.934 242.123 358.133 247.684 358.955C261.802 361.042 275.919 363.129 290.037 365.215C272.602 365.739 255.11 364.312 237.991 360.969C234.838 365.433 241.977 369.941 247.372 370.814C261.681 373.13 275.991 375.445 290.301 377.761C274.138 377.653 257.982 376.576 241.949 374.536C252.146 383.734 266.065 388.68 279.78 387.978C272.043 390.522 263.448 390.369 255.807 387.551C265.366 400.352 284.923 402.723 299.204 395.563C313.486 388.403 322.811 373.755 327.373 358.444C331.935 343.133 332.378 326.951 333.186 310.995C334.678 281.543 337.53 252.13 342.689 223.094C346.164 203.542 354.698 180.228 374.364 177.465C339.328 175.85 304.258 174.98 269.186 174.853C258.528 174.815 245.29 176.558 241.731 186.604C238.688 186.92 239.367 181.759 241.673 179.748C250.282 172.244 262.826 171.968 274.246 172.084L350.877 172.869C375.626 173.122 405.307 176.261 416.512 198.33C416.186 191.771 422.131 185.582 428.698 185.642C435.859 185.708 441.849 179.495 443.939 172.645C446.029 165.795 445.107 158.435 444.166 151.335C432.619 140.154 429.596 121.147 437.105 106.935C439.229 102.915 442.367 93.33 459.892 87.161C471.576 83.048 483.125 83.5 494.539 88.517C515.975 84.372 530.705 85.844 538.73 92.931C550.767 103.563 550.998 112.276 544.071 120.01C551.902 116.948 561.107 122.141 565.029 129.579C568.952 137.016 568.747 145.927 567.567 154.253C564.644 174.871 556.239 194.687 543.446 211.118L541.682 216.315C572.629 224.293 597.664 251.646 602.877 283.177C592.588 259.986 578.66 235.426 554.663 227.193C549.248 232.873 543.68 238.8 541.137 246.224C538.594 253.648 539.968 263.028 546.416 267.501C542.366 268.439 538.316 269.378 534.266 270.317C535.614 272.708 536.962 275.099 538.31 277.49C523.007 289.124 521.246 311.129 521.339 330.352C521.432 349.576 521.082 371.255 507.135 384.486C494.704 396.279 475.731 397.085 458.606 396.541C416.497 395.205 374.517 389.854 333.421 380.583C329.927 379.795 325.501 379.315 323.487 382.277C308.909 403.711 278.423 405.627 252.569 403.761C219.358 401.365 186.339 396.328 153.924 388.714C135.538 384.395 116.013 378.382 104.559 363.365C91.206 345.858 92.748 321.585 94.915 299.674C81.75 306.994 66.143 309.827 51.245 307.603C66.949 297.336 74.564 277.695 74.707 258.933C74.85 240.172 68.588 221.986 61.62 204.566C46.269 213.47 38.192 232.238 39.394 249.944C40.595 267.649 49.989 284.083 62.593 296.576C47.055 286.77 36.774 269.105 35.923 250.752C35.072 232.398 43.675 213.858 58.238 202.656C55.911 194.698 43.905 193.725 37.612 199.125C31.3196 204.524 29.3447 213.288 27.7261 221.421C24.7352 236.447 21.732 251.824 23.9051 266.99C26.0782 282.156 34.4558 297.337 48.494 303.474C41.934 308.203 33.1955 301.395 28.8385 294.582C11.1696 266.951 10.636 229.291 27.515 201.171C29.5426 197.793 31.882 194.464 35.184 192.315C38.684 190.036 42.951 189.287 47.112 188.918C63.522 187.465 80.359 191.295 94.526 199.705C94.399 153.662 94.273 107.619 94.146 61.576C94.139 58.939 94.175 56.141 95.581 53.91C97.614 50.684 101.779 49.684 105.528 48.984C139.631 42.618 174.12 38.324 208.742 36.135C220.055 35.42 235.537 38.568 235.588 49.903ZM212.465 38.909C175.757 40.637 139.182 45.175 103.165 52.47C101.632 52.78 100.009 53.143 98.895 54.24C97.377 55.735 97.26 58.104 97.24 60.234C96.81 106.081 96.992 151.933 97.785 197.774C102.193 196.675 106.601 195.576 111.008 194.477C109.285 185.071 107.555 175.537 108.292 166.002C109.028 156.467 112.527 146.771 119.724 140.473C127.513 133.657 138.383 131.731 148.708 131.006C158.636 130.309 168.625 130.471 178.526 131.488C188.633 132.527 199.28 134.772 206.571 141.847C217.104 152.068 217.275 168.626 216.729 183.292C215.282 222.226 213.834 261.16 212.387 300.093C212.047 309.233 211.687 318.495 208.997 327.236C206.308 335.977 200.969 344.284 192.892 348.574C184.966 352.783 175.482 352.664 166.565 351.651C158.052 350.683 149.621 348.995 141.391 346.611C136.392 345.163 131.39 343.419 127.141 340.413C113.083 330.464 111.421 310.612 111.079 293.393C105.681 292.418 100.404 296.527 98.175 301.539C95.947 306.551 96.045 312.246 96.184 317.73C96.529 331.408 97.062 345.77 104.045 357.537C114.819 375.692 137.448 382.4 158.11 386.735C194.783 394.43 232.017 399.448 269.419 401.736C252.727 393.235 237.928 378.684 234.408 360.286C233.451 355.288 233.349 350.172 233.249 345.084C231.3 245.605 229.351 146.127 227.402 46.648C227.279 40.357 218.75 38.613 212.465 38.909ZM354.762 202.234C353.834 204.499 353.159 207.011 353.777 209.379C354.395 211.747 356.696 213.815 359.11 213.413C369.923 211.612 381.579 216.938 387.295 226.291C392.011 234.009 392.666 243.451 393.197 252.48L398.033 334.725C398.55 343.514 398.805 353.186 393.342 360.09C386.255 369.049 372.947 369.347 361.578 368.235C352.198 367.318 342.33 365.758 335.047 359.774C335.305 363.257 334.29 366.82 332.235 369.643C329.699 373.128 333.793 377.714 337.776 379.362C342.64 381.375 347.93 382.076 353.151 382.753C377.062 385.857 400.988 388.85 424.928 391.732C443.354 393.95 462.075 396.098 480.394 393.121C468.805 389.869 457.715 384.843 447.63 378.272C442.599 374.993 437.734 371.248 434.302 366.319C428.701 358.274 427.52 348.052 426.588 338.293C423.817 309.275 421.754 280.19 420.402 251.071C419.405 229.594 412.518 208.419 400.69 190.464C398.575 187.253 395.988 183.922 392.249 183.028C377.382 179.474 360.563 188.092 354.762 202.234ZM286.592 388.094C287.853 388.308 289.147 388.59 290.187 389.336C291.226 390.082 291.951 391.406 291.631 392.644C291.311 393.883 289.676 394.697 288.644 393.942C287.504 393.109 285.988 393.08 284.63 392.696C283.272 392.312 281.848 391.184 282.092 389.794C282.402 388.032 284.828 387.794 286.592 388.094ZM234.234 388.617C235.798 388.942 237.63 390.057 237.309 391.623C237.027 393.004 235.319 393.464 233.922 393.65C232.356 393.859 230.685 394.053 229.263 393.365C227.842 392.676 226.92 390.734 227.852 389.46C228.481 388.6 229.658 388.371 230.723 388.328C231.899 388.28 233.081 388.377 234.234 388.617ZM327.842 371.216C326.357 372.287 325.337 373.865 324.289 375.367C319.512 382.211 313.457 388.16 306.531 392.816C306.704 393.551 307.805 393.365 308.458 392.987C316.478 388.34 322.202 380.663 327.695 373.197C328.144 372.586 328.515 371.564 327.842 371.216ZM399.559 186.321C403.838 191.374 408.15 196.475 411.281 202.309C414.674 208.635 416.581 215.644 418.116 222.656C426.703 261.884 424.411 302.667 429.976 342.436C430.98 349.612 432.308 356.94 436.042 363.15C440.416 370.425 447.675 375.468 455.071 379.635C461.052 383.005 467.295 385.965 473.864 387.961C484.31 391.135 496.858 391.358 504.866 383.936C509.362 379.769 511.727 373.823 513.575 367.977C521.494 342.921 522.364 315.679 516.062 290.168C516.22 305.426 518.202 320.647 517.748 335.898C517.295 351.15 514.164 366.855 505.199 379.201C503.423 381.647 501.364 383.994 498.681 385.384C495.146 387.216 490.946 387.18 486.995 386.698C480.093 385.855 473.345 383.769 467.171 380.572C462.482 378.142 458.143 375.09 453.939 371.893C449.052 368.177 444.254 364.174 440.83 359.079C437.437 354.028 435.545 348.128 434.045 342.231C423.09 299.174 430.923 252.729 417.924 210.244C414.86 200.231 409.539 189.489 399.559 186.321ZM138.212 375.742C163.501 379.646 188.791 383.549 214.08 387.453C213.44 389.126 211.128 389.184 209.352 388.947C187.724 386.058 166.096 383.169 144.468 380.279C142.023 379.953 139.578 379.626 137.132 379.3C135.972 379.144 134.531 378.724 134.384 377.563C134.177 375.926 136.581 375.491 138.212 375.742ZM431.583 227.139C426.241 233.083 426.626 242.052 427.326 250.013C428.857 267.438 430.389 284.863 431.92 302.288C431.992 303.104 432.079 303.963 432.557 304.627C433.339 305.713 434.852 305.902 436.187 305.996C454.369 307.277 472.551 308.558 490.733 309.84C489.374 311.989 486.309 312.021 483.774 311.825C466.657 310.504 449.47 310.075 432.308 310.543C432.012 319.344 433.309 328.196 436.118 336.542C437.335 340.16 442.022 340.93 445.836 341.085C460.379 341.674 474.922 342.262 489.466 342.851C490.135 344.358 487.785 345.299 486.136 345.28C471.188 345.108 456.239 344.936 441.29 344.764C439.242 344.741 438.501 347.641 439.273 349.538C441.29 354.495 447.71 355.563 453.051 355.897L486.473 357.99C487.236 358.038 487.395 359.237 486.838 359.76C486.281 360.284 485.432 360.298 484.668 360.282L445.536 359.452C455.654 371.494 469.845 380.05 485.217 383.378C488.529 384.095 492.041 384.566 495.259 383.504C499.11 382.232 501.95 378.963 504.173 375.571C515.963 357.583 515.179 334.439 513.974 312.965L512.608 288.626C513.085 287.97 514.065 287.742 514.782 288.122C515.059 286.929 513.507 286.22 512.302 285.999C485.704 281.114 458.41 276.22 431.791 280.992C430.94 280.643 430.949 279.319 431.596 278.665C432.243 278.011 433.224 277.852 434.135 277.727C437.774 277.226 441.413 276.726 445.051 276.225C436.7 272.454 431.639 263.494 430.127 254.457C428.615 245.42 430.091 236.18 431.583 227.139ZM300.856 375.103C303.225 375.544 305.961 376.268 306.885 378.493C304.248 380.291 300.784 380.107 297.602 379.853C296.727 379.783 295.77 379.676 295.155 379.049C294.067 377.94 294.879 375.896 296.279 375.222C297.679 374.549 299.329 374.819 300.856 375.103ZM120.424 358.844C147.671 367.405 175.906 372.818 204.387 374.94C206.596 375.105 209.566 376.158 209.141 378.332C179.02 374.926 149.082 369.891 119.503 363.257C117.616 362.834 115.194 361.49 115.897 359.687C116.515 358.104 118.803 358.335 120.424 358.844ZM220.222 372.058C221.613 372.055 222.956 372.532 224.256 373.027C224.918 373.278 225.646 373.603 225.902 374.262C226.449 375.668 224.51 376.673 223.026 376.942C222.027 377.123 221.028 377.305 220.029 377.486C219.187 377.639 218.28 377.784 217.504 377.421C216.244 376.831 215.917 375.013 216.64 373.824C217.362 372.635 218.83 372.062 220.222 372.058ZM348.525 369.055C360.577 371.347 372.922 371.477 385.19 371.6C386.139 371.609 386.395 373.103 385.717 373.767C385.039 374.432 383.98 374.461 383.031 374.442C371.579 374.217 360.113 373.01 348.694 373.91C347.451 374.008 346.16 374.125 344.993 373.688C343.825 373.25 342.83 372.07 343.052 370.844C343.243 369.786 344.274 369.045 345.329 368.841C346.384 368.636 347.469 368.854 348.525 369.055ZM375.753 180.117C362.107 182.155 350.642 194.3 349.395 208.041C348.229 220.875 344.687 233.355 342.165 245.992C334.068 286.574 336.524 328.631 329.365 369.389C331.98 364.628 332.685 359.086 333.344 353.693L350.704 211.524C351.166 207.741 351.638 203.915 352.997 200.354C356.711 190.624 366.31 184.511 375.753 180.117ZM313.707 364.249C314.45 364.485 315.212 364.795 315.707 365.398C316.203 366 316.327 366.973 315.786 367.534C315.377 367.958 314.737 368.034 314.151 368.086C312.233 368.255 310.315 368.425 308.397 368.594C307.361 368.686 306.292 368.773 305.305 368.447C304.318 368.12 303.428 367.265 303.4 366.226C303.352 364.466 305.523 363.581 307.28 363.466C309.446 363.325 311.638 363.592 313.707 364.249ZM354.1 217.07C352.512 217.64 352.088 219.645 351.908 221.322L345.92 277.089C345.565 280.391 349.83 282.499 353.05 281.681C356.269 280.863 358.727 278.348 361.51 276.535C364.294 274.723 368.218 273.68 370.774 275.801C373.663 278.199 377.94 275.535 380.449 272.743C382.959 269.951 386.227 266.585 389.796 267.75C385.609 271.754 381.423 275.759 377.236 279.763C375.848 281.092 374.623 283.744 376.378 284.528C381.188 282.822 385.537 279.832 388.852 275.952C390.385 275.903 390.457 278.31 389.602 279.583C386.379 284.38 378.793 285.448 376.839 290.887C372.281 303.582 358.062 312.014 344.736 309.926C342.003 309.498 340.64 313.094 340.311 315.841C338.999 326.795 337.687 337.749 336.375 348.703C336.074 351.223 335.792 353.888 336.829 356.204C338.561 360.069 343.191 361.531 347.296 362.571C355.007 364.525 362.844 366.492 370.794 366.211C378.743 365.931 386.963 363.088 391.997 356.929C390.603 355.119 387.498 357.44 385.467 356.393C383.481 355.368 384.536 351.957 386.668 351.286C388.801 350.615 391.052 351.681 393.032 352.717C394.276 350.29 395.555 347.693 395.299 344.977C395.043 342.262 392.551 339.577 389.893 340.187C388.146 340.589 387.434 337.561 388.843 336.452C390.251 335.344 392.274 335.703 394.018 336.118C394.115 329.564 394.212 323.011 394.309 316.458C394.328 315.121 394.333 313.716 393.698 312.539C393.064 311.361 391.561 310.536 390.356 311.117C388.714 311.908 387.29 309.112 388.389 307.657C389.488 306.203 391.563 306.015 393.385 305.951C393.526 300.131 393.149 294.299 392.262 288.545C385.403 291.982 384.203 301.051 383.511 308.692C382.184 323.346 379.515 337.878 375.548 352.047C374.659 355.221 373.659 358.467 371.582 361.027C369.505 363.586 366.083 365.325 362.893 364.493C363.609 362.165 366.045 360.915 367.829 359.257C371.04 356.273 372.232 351.762 373.28 347.505C376.899 332.796 380.541 317.908 380.495 302.76L380.489 301.744C380.465 298.86 380.435 295.935 381.386 293.226C382.448 290.198 385.111 287.459 388.32 287.444C391.704 287.427 392.512 282.733 392.209 279.363C391.166 267.742 390.123 256.12 389.08 244.499C388.747 240.787 388.407 237.041 387.28 233.488C383.116 220.355 367.067 212.413 354.1 217.07ZM405.162 358.805C406.752 359.232 408.296 360.867 407.635 362.375C407.004 363.816 405.022 363.896 403.456 363.747C402.69 363.675 401.874 363.583 401.276 363.099C400.227 362.251 400.375 360.452 401.357 359.528C402.34 358.604 403.859 358.455 405.162 358.805ZM214.031 357.194C215.077 357.42 216.168 357.725 216.92 358.487C217.672 359.249 217.921 360.607 217.173 361.373C216.562 361.999 215.577 362.01 214.703 361.98C213.446 361.936 212.189 361.891 210.932 361.847C210.204 361.822 209.426 361.779 208.841 361.345C207.593 360.416 208.14 358.24 209.482 357.451C210.823 356.661 212.51 356.864 214.031 357.194ZM117.182 345.79C124.218 349.062 131.949 350.49 139.594 351.822C155.07 354.518 170.593 356.946 186.153 359.105C188.33 359.407 190.742 359.835 192.069 361.588C186.043 362 180.021 360.996 174.065 359.996C154.43 356.699 134.795 353.402 115.16 350.104C113.102 349.759 110.445 348.616 110.846 346.568C111.321 344.14 114.939 344.747 117.182 345.79ZM239.359 276.243C238.676 278.986 238.807 281.856 238.9 284.681C239.483 302.316 238.436 320.005 235.778 337.448C235.145 341.606 237.629 345.764 241.044 348.22C244.459 350.675 248.666 351.73 252.796 352.526C262.107 354.319 271.622 355.055 281.098 354.713C284.701 354.583 288.454 354.251 291.536 352.379C294.454 350.606 296.432 347.655 298.174 344.719C305.563 332.259 310.409 318.298 312.327 303.939C285.747 303.819 259.325 293.791 239.359 276.243ZM308.879 346.163C310.694 346.762 312.509 347.361 314.323 347.96C314.929 348.159 315.577 348.391 315.936 348.917C316.543 349.807 315.954 351.109 315.015 351.637C314.077 352.165 312.937 352.137 311.861 352.094C309.902 352.016 307.738 351.851 306.37 350.446C305.003 349.041 305.472 346.01 307.428 345.883C307.923 345.85 308.408 346.008 308.879 346.163ZM404.008 346.426C405.087 346.598 406.226 346.797 407.058 347.506C407.89 348.215 408.231 349.619 407.465 350.399C407.156 350.713 406.727 350.874 406.311 351.019C404.705 351.578 402.921 352.025 401.332 351.416C399.744 350.807 398.66 348.707 399.659 347.33C400.577 346.064 402.464 346.179 404.008 346.426ZM121.859 287.715C120.741 288.245 119.544 288.85 118.992 289.957C118.58 290.783 118.601 291.749 118.632 292.671C119.05 305.235 119.577 318.249 125.196 329.495C126.714 332.532 128.644 335.454 131.377 337.469C133.032 338.689 134.927 339.536 136.806 340.372C140.066 341.824 143.334 343.276 146.719 344.409C154.472 347.006 162.678 347.886 170.809 348.749C174.257 349.116 177.929 349.444 181.022 347.877C184.663 346.033 186.603 342.036 188.169 338.267C196.902 317.247 201.888 294.678 202.822 271.935C202.955 268.704 198.818 267.277 195.591 267.06C169.829 265.331 145.191 276.656 121.859 287.715ZM206.823 271.024C206.162 271.893 206.08 273.056 206.014 274.146C204.473 299.865 198.072 325.285 187.248 348.667C197.56 343.448 205.243 333.314 207.484 321.976C208.254 318.078 208.411 314.089 208.567 310.118C209.057 297.599 209.547 285.079 210.037 272.56C210.063 271.9 210.068 271.174 209.648 270.664C208.954 269.821 207.484 270.154 206.823 271.024ZM211.094 333.667C212.402 333.738 213.632 334.282 214.904 334.598C216.043 334.881 216.387 336.503 215.751 337.49C215.115 338.476 213.889 338.905 212.727 339.068C211.513 339.239 210.209 339.174 209.165 338.532C208.122 337.89 207.445 336.549 207.861 335.397C208.307 334.165 209.785 333.596 211.094 333.667ZM404.758 330.267C405.982 330.52 407.031 331.278 408.038 332.017C408.585 332.418 409.166 332.868 409.345 333.522C409.574 334.357 409.023 335.256 408.264 335.672C407.505 336.088 406.595 336.118 405.733 336.049C404.507 335.951 403.24 335.647 402.315 334.837C401.39 334.026 400.92 332.604 401.496 331.517C402.082 330.414 403.535 330.014 404.758 330.267ZM113.705 291.373C113.371 291.97 113.438 292.701 113.516 293.381L115.333 309.386C116.32 318.072 117.612 327.432 123.683 333.721C124.695 333.241 124.124 331.72 123.486 330.799C118.568 323.702 117.621 314.679 116.823 306.082C116.356 301.043 115.888 296.004 115.421 290.964C114.951 290.468 114.04 290.777 113.705 291.373ZM437.432 324.159C454.111 324.571 470.79 324.982 487.469 325.394C490.021 325.457 492.582 325.521 495.107 325.9C494.58 327.724 492.183 328.067 490.284 328.049C473.558 327.891 456.777 326.856 440.141 328.595C438.719 328.744 437.183 328.89 435.949 328.168C434.715 327.445 434.162 325.464 435.297 324.594C435.885 324.142 436.691 324.141 437.432 324.159ZM391.606 320.882C391.974 321.002 392.349 321.129 392.649 321.373C393.646 322.185 393.275 323.919 392.255 324.702C391.235 325.484 389.861 325.575 388.576 325.606C387.238 325.639 385.678 325.534 384.916 324.434C383.959 323.053 385.096 321.01 386.68 320.45C388.264 319.89 390.01 320.359 391.606 320.882ZM403.801 317.511C405.356 317.679 406.87 318.224 408.175 319.087C409.173 319.746 408.974 321.402 408.066 322.18C407.158 322.958 405.863 323.067 404.668 323.024C403.46 322.98 402.199 322.797 401.221 322.085C400.244 321.374 399.662 319.999 400.186 318.909C400.783 317.666 402.429 317.363 403.801 317.511ZM235.778 279.448C234.87 292.539 234.463 305.664 234.558 318.786C234.562 319.34 234.94 320.128 235.413 319.84C236.418 308.81 236.911 297.734 236.89 286.659C236.885 284.205 236.836 281.662 235.778 279.448ZM217.948 313.03C219.379 313.138 220.641 313.97 221.808 314.806C222.167 315.063 222.537 315.338 222.737 315.732C223.153 316.547 222.655 317.597 221.873 318.074C221.092 318.551 220.125 318.588 219.211 318.546C217.131 318.448 214.516 317.317 214.749 315.248C214.909 313.821 216.517 312.922 217.948 313.03ZM407.266 304.212C408.659 304.784 410.092 306.277 409.372 307.599C408.885 308.494 407.698 308.688 406.679 308.698C405.496 308.71 404.312 308.613 403.146 308.41C401.506 308.124 401.255 305.545 402.528 304.472C403.801 303.4 405.726 303.58 407.266 304.212ZM569.567 278.598C570.141 279.559 570.151 280.742 570.144 281.861C570.095 289.782 570.046 297.704 569.998 305.625C569.992 306.587 569.863 307.753 568.989 308.157C568.235 308.506 567.305 308.016 566.885 307.298C566.465 306.58 566.427 305.709 566.413 304.878C566.291 297.806 567.079 290.565 565.076 283.782C564.481 281.766 563.769 279.249 565.325 277.837C566.542 276.733 568.724 277.188 569.567 278.598ZM365.911 277.68C359.906 281.406 353.59 285.237 346.542 285.745C345.26 285.837 344.682 287.369 344.429 288.629C343.291 294.3 342.663 300.073 342.555 305.855C342.548 306.209 342.552 306.589 342.756 306.877C343.081 307.336 343.744 307.355 344.305 307.326C349.804 307.038 355.377 306.464 360.484 304.405C365.591 302.346 370.237 298.617 372.318 293.52C374.398 288.422 373.398 281.921 369.148 278.42C368.234 277.667 366.917 277.056 365.911 277.68ZM319.942 299.978C321.871 300.484 323.8 300.991 325.729 301.498C326.45 301.687 327.252 301.938 327.597 302.599C328.003 303.377 327.53 304.381 326.796 304.862C326.061 305.343 325.147 305.434 324.272 305.512C322.886 305.635 321.458 305.754 320.127 305.345C318.797 304.935 317.571 303.862 317.419 302.478C317.267 301.094 318.595 299.624 319.942 299.978ZM52.327 194.417C59.547 197.341 64.982 203.667 68.353 210.69C71.723 217.713 73.258 225.456 74.596 233.13C76.81 245.832 78.573 258.797 76.959 271.588C75.344 284.38 69.997 297.135 60.084 305.379C67.305 305.765 75.927 305.479 79.847 299.403C81.606 296.676 85.393 295.469 88.405 296.675C86.511 295.037 87.941 291.988 89.347 289.917C95.106 281.427 99.058 271.67 100.47 261.509C103.209 241.807 96.324 221.839 86.109 204.77C79.481 193.696 64.022 188.958 52.327 194.417ZM223.524 296.479C225.014 297.065 224.667 299.527 223.275 300.318C221.882 301.109 220.146 300.753 218.595 300.359C217.871 300.174 217.103 299.959 216.611 299.397C215.464 298.084 216.781 295.865 218.48 295.473C220.178 295.082 221.902 295.84 223.524 296.479ZM277.088 201.669C270.713 201.782 264.021 202.559 258.817 206.243C257.096 207.461 255.533 209.056 254.904 211.069C254.276 213.081 254.805 215.554 256.551 216.736C260.963 219.725 262.762 225.316 263.589 230.581C264.416 235.845 264.615 241.358 267.014 246.117C268.251 248.571 270.025 250.712 271.886 252.735C281.973 263.703 295.131 271.817 309.46 275.906C311.979 276.625 315.184 278.181 314.652 280.746C294.036 276.422 275.237 263.982 263.2 246.696C259.542 257.93 252.327 267.977 242.85 275.031C261.336 290.763 285.259 299.98 309.521 300.718C310.62 300.752 311.864 300.71 312.606 299.898C313.092 299.366 313.244 298.619 313.376 297.91C316.81 279.443 319.23 260.787 320.622 242.055C321.098 235.646 321.447 229.132 320.061 222.857C318.676 216.582 315.334 210.482 309.87 207.1C306.503 205.016 302.561 204.081 298.663 203.386C291.55 202.117 284.313 201.541 277.088 201.669ZM403.758 291.544C405.429 291.546 407.538 292.034 407.832 293.679C408.124 295.319 406.256 296.541 404.603 296.752C403.394 296.906 402.081 296.76 401.122 296.008C400.163 295.256 399.717 293.783 400.383 292.762C401.066 291.716 402.509 291.543 403.758 291.544ZM527.263 258.613C524.195 270.497 522.404 282.669 520.619 294.813C520.53 295.417 520.479 296.132 520.935 296.538C525.717 290.596 530.104 284.337 534.058 277.814C534.448 277.171 534.831 276.329 534.393 275.716C533.403 274.331 532.412 272.946 531.422 271.561C530.687 270.534 529.929 269.179 530.576 268.094C531.101 267.211 532.278 267.025 533.301 266.93L541.703 266.157C541.612 265.636 541.295 265.188 540.987 264.759C538.738 261.628 536.284 258.336 532.682 256.963C530.685 256.202 527.797 256.544 527.263 258.613ZM138.131 135.666C131.989 136.697 125.336 138.473 121.772 143.58C119.777 146.439 119.043 149.969 118.457 153.405C116.152 166.92 115.432 180.705 116.317 194.387C142.795 182.068 173.775 179.728 201.804 187.93C204.181 188.626 207.123 190.734 205.875 192.873C184.85 185.097 161.431 183.937 139.741 189.598C132.722 191.43 125.901 193.949 118.923 195.928C108.551 198.869 97.84 200.607 87.071 201.098C106.684 227.727 109.222 265.857 93.311 294.851C103.211 292.978 112.512 288.818 121.64 284.553C135.267 278.184 148.836 271.468 163.312 267.38C177.788 263.292 193.44 261.955 207.799 266.437C209.479 266.961 210.404 264.537 210.471 262.779L213.583 181.257C214.055 168.907 214.094 155.252 206.009 145.905C198.855 137.634 187.188 135.047 176.292 134.117C163.574 133.031 150.719 133.553 138.131 135.666ZM327.831 286.975C328.233 287.237 328.648 287.568 328.742 288.038C328.932 288.994 327.77 289.602 326.833 289.868C325.472 290.254 324.069 290.641 322.662 290.493C321.254 290.345 319.823 289.536 319.36 288.199C318.898 286.862 319.827 285.107 321.242 285.081C323.561 285.038 325.889 285.707 327.831 286.975ZM527.551 235.677C522.429 238.549 516.31 239.598 510.524 238.597C511.264 240.661 514.509 241.38 514.525 243.573C514.535 244.908 513.277 245.848 512.562 246.975C512.012 247.843 511.774 248.867 511.554 249.87C509.493 259.31 508.309 268.941 508.024 278.599C507.975 280.263 508.389 282.461 510.044 282.642C513.472 283.018 516.7 284.94 518.664 287.775C520.273 277.648 521.882 267.522 523.491 257.396C523.865 255.046 524.179 252.422 522.802 250.482C520.908 247.812 522.557 244.155 524.218 241.335L527.551 235.677ZM222.583 279.445C224.332 279.794 226.32 281.304 225.658 282.959C225.25 283.979 224.018 284.391 222.921 284.449C221.824 284.508 220.683 284.345 219.656 284.735C218.447 285.193 217.024 284.122 216.877 282.838C216.729 281.554 217.622 280.307 218.785 279.743C219.948 279.179 221.316 279.192 222.583 279.445ZM403.737 277.881C404.839 278.034 406.001 278.276 406.803 279.047C407.605 279.819 407.826 281.286 406.972 282C406.69 282.235 406.334 282.36 405.986 282.479C404.472 282.996 402.852 283.502 401.299 283.118C399.746 282.735 398.395 281.086 398.933 279.579C399.552 277.841 401.909 277.629 403.737 277.881ZM504.06 257.064C502.893 257.345 502.042 258.319 501.272 259.241L496.638 264.791C495.732 265.875 497.326 267.387 498.734 267.505C500.142 267.623 501.787 267.292 502.789 268.288C503.839 269.332 503.406 271.152 502.546 272.357C501.687 273.562 500.468 274.547 499.948 275.933C499.171 278.005 500.457 280.602 502.576 281.241C503.727 281.587 505.342 281.054 505.352 279.852C505.411 272.826 505.822 265.803 506.582 258.818C506.712 257.625 505.227 256.783 504.06 257.064ZM268.895 260.553C269.783 261.143 270.357 262.087 270.949 262.974C276.034 270.587 284.538 275.82 293.626 276.926C295.728 277.182 298.208 277.438 299.262 279.274C297.282 281.235 294.055 280.996 291.341 280.365C281.719 278.126 272.902 272.567 266.735 264.85C265.751 263.62 264.853 261.748 265.95 260.617C266.692 259.852 268.007 259.963 268.895 260.553ZM499.062 226.911C492.267 228.58 485.482 230.937 479.975 235.253C474.468 239.569 470.371 246.127 470.415 253.124C470.47 261.997 466.11 270.791 459.014 276.119L470.961 277.525C472.36 277.689 473.928 277.808 475.023 276.923C476.625 275.627 476.215 273.14 475.811 271.12C475.406 269.1 475.495 266.43 477.417 265.687C479.804 264.764 481.779 268.075 481.417 270.608C481.056 273.141 479.586 275.579 480.046 278.096C485.704 278.899 491.38 279.575 497.068 280.125C495.936 279.196 495.813 277.435 496.386 276.088C496.958 274.74 498.07 273.709 499.15 272.721C500.301 271.669 498.642 269.814 497.091 269.647C495.541 269.481 493.716 269.853 492.623 268.741C491.264 267.358 492.284 265.039 493.443 263.484C495.694 260.467 498.483 256.831 497.035 253.357C493.502 244.886 494.28 234.744 499.062 226.911ZM238.48 203.765C237.533 226.954 237.663 250.187 238.869 273.365C247.727 268.558 254.199 260.101 258.213 250.856C260.662 245.216 262.301 239 261.322 232.93C260.592 228.403 258.449 224.221 255.957 220.372C251.537 213.545 245.766 207.381 238.48 203.765ZM443.883 192.655C447.064 192.069 449.496 195.996 448.954 199.185C448.412 202.374 446.093 204.909 444.251 207.568C441.706 211.242 439.966 215.402 438.244 219.526C434.147 229.339 432.552 240.185 433.651 250.762C434.298 256.989 436.005 263.386 440.216 268.019C444.426 272.652 451.644 274.969 457.192 272.069C461.958 269.578 464.335 264.087 465.428 258.822C466.521 253.557 466.715 248.046 468.78 243.081C472.589 233.921 481.982 228.388 491.274 224.914C477.306 223.016 464.668 213.284 459.265 200.264C457.716 196.53 456.553 192.32 453.339 189.869C450.124 187.417 444.072 188.617 443.883 192.655ZM325.814 267.356C326.796 267.544 327.76 267.83 328.686 268.207C330.215 268.829 331.858 270.549 330.874 271.874C330.337 272.599 329.305 272.686 328.404 272.709C326.76 272.751 324.987 272.756 323.644 271.807C322.302 270.857 321.837 268.56 323.191 267.627C323.935 267.115 324.927 267.186 325.814 267.356ZM399.866 263.441C401.196 263.554 402.52 263.739 403.831 263.994C404.479 264.12 405.178 264.296 405.585 264.816C406.203 265.604 405.814 266.839 405.033 267.465C404.252 268.091 403.213 268.267 402.224 268.422C400.713 268.658 399.101 268.882 397.708 268.253C396.314 267.624 395.362 265.782 396.214 264.512C396.957 263.404 398.537 263.329 399.866 263.441ZM19.698 256.288C18.5716 256.276 18.1819 257.78 18.2161 258.906C18.3143 262.141 18.9692 265.359 20.1435 268.376C20.4704 268.709 20.85 268.013 20.8043 267.549L19.698 256.288ZM236.139 264.619C235.436 265 235.168 266.01 235.59 266.689L235.607 266.714L235.592 266.731C235.573 266.753 235.553 266.78 235.531 266.812C235.248 267.24 235.645 267.919 236.157 267.883C236.503 266.831 236.496 265.667 236.139 264.619ZM221.499 260.039C223.023 260.376 224.677 261.641 224.298 263.156C224.047 264.159 222.991 264.748 221.981 264.972C220.972 265.196 219.905 265.181 218.94 265.556C217.714 266.032 216.237 265.043 215.985 263.752C215.732 262.461 216.523 261.113 217.664 260.459C218.806 259.804 220.214 259.755 221.499 260.039ZM230.319 46.44C230.408 116.247 232.012 186.053 235.129 255.791L235.457 263.001L235.506 260.682C235.596 255.261 235.517 249.839 235.437 244.418C234.507 180.875 233.576 117.333 232.645 53.79C232.607 51.13 232.397 48.102 230.319 46.44ZM330.166 249.831C331.021 250.087 331.879 250.476 332.433 251.175C332.988 251.874 333.147 252.949 332.598 253.653C332.067 254.334 331.105 254.463 330.244 254.54L326.571 254.866C325.971 254.919 325.326 254.963 324.804 254.661C324.382 254.418 324.103 253.973 323.975 253.504C323.589 252.089 324.546 250.554 325.869 249.924C327.192 249.294 328.761 249.411 330.166 249.831ZM34.3301 195.187C30.5116 198.939 28.5255 204.125 26.6905 209.154C21.5772 223.167 16.7179 238.041 19.2409 252.743C20.0211 252.886 20.3929 251.825 20.4508 251.034C21.488 236.85 24.3223 222.799 28.8644 209.323C30.5975 204.181 32.682 198.959 36.532 195.135C36.479 194.203 34.9954 194.533 34.3301 195.187ZM503.76 225.842C503.094 226.005 502.663 226.634 502.315 227.224C499.029 232.8 497.482 239.384 497.941 245.84C498.13 248.505 498.988 251.575 501.477 252.547C503.501 250.604 505.525 248.661 507.549 246.718C507.87 246.409 508.199 246.09 508.377 245.681C508.821 244.659 508.186 243.518 507.603 242.568C504.719 237.875 502.552 231.926 504.955 226.969C505.254 226.352 504.426 225.678 503.76 225.842ZM545.814 219.826C545.491 219.994 545.241 220.273 545 220.546C539.026 227.303 533.256 234.24 527.7 241.346C526.54 242.83 525.33 244.503 525.444 246.383C525.545 248.055 526.721 249.511 528.146 250.39C529.571 251.269 531.231 251.67 532.86 252.058C533.296 252.162 533.769 252.263 534.179 252.081C534.556 251.914 534.795 251.544 535.013 251.194C538.414 245.71 541.863 240.118 543.469 233.868C543.812 232.535 544.967 231.604 545.891 230.584C547.705 228.58 548.768 225.911 548.829 223.209C548.85 222.294 548.742 221.328 548.213 220.582C547.683 219.835 546.625 219.402 545.814 219.826ZM400.308 246.573C401.131 246.777 402.039 247.089 402.408 247.852C403.059 249.198 401.532 250.601 400.104 251.043C398.997 251.385 397.763 251.504 396.701 251.04C395.64 250.576 394.834 249.405 395.075 248.271C395.503 246.26 398.311 246.078 400.308 246.573ZM222.861 243.635C223.25 243.983 223.61 244.393 223.757 244.893C224.054 245.9 223.351 247.011 222.386 247.425C221.421 247.839 220.295 247.679 219.323 247.282C218.299 246.865 217.302 246.067 217.172 244.969C217.023 243.714 218.16 242.558 219.412 242.377C220.663 242.195 221.92 242.791 222.861 243.635ZM333.587 232.597C334.586 233.004 334.69 234.514 334.001 235.344C333.313 236.173 332.164 236.449 331.09 236.54C330.016 236.63 328.904 236.591 327.901 236.984C326.358 237.588 324.681 235.724 325.048 234.109C325.415 232.494 327.15 231.49 328.804 231.413C330.459 231.336 332.054 231.972 333.587 232.597ZM398.596 230.168C400.012 230.237 401.412 230.609 402.675 231.251C403.223 231.529 403.79 231.914 403.946 232.509C404.267 233.734 402.731 234.575 401.487 234.813C400.385 235.025 399.266 235.151 398.145 235.19C396.76 235.238 395.09 234.971 394.539 233.7C394.11 232.713 394.632 231.502 395.509 230.879C396.386 230.255 397.522 230.115 398.596 230.168ZM489.855 139.759C481.596 141.092 473.301 142.196 464.982 143.071C458.955 143.704 453.279 147.123 449.902 152.154C449.208 153.188 448.73 154.837 449.802 155.471C452.834 151.973 456.95 149.427 461.435 148.277C463.037 147.866 464.792 147.642 466.304 148.315C467.815 148.989 468.895 150.843 468.211 152.349C467.161 154.663 463.811 154.016 461.275 153.861C454.222 153.431 448.122 161.503 450.462 168.171C452.104 161.806 461.191 159.043 466.284 163.198C471.378 167.353 470.755 176.479 465.308 180.158C463.507 181.373 461.196 182.221 460.374 184.232C459.67 185.956 460.348 187.903 461.024 189.638C462.084 192.362 463.145 195.086 464.205 197.809C466.428 203.52 468.79 209.439 473.29 213.598C476.751 216.797 481.239 218.7 485.817 219.815C502.323 223.838 520.905 217.436 531.43 204.099C532.274 203.03 534.198 204.044 534.349 205.397C534.499 206.75 533.574 207.967 532.659 208.975C527.946 214.162 522.006 218.227 515.465 220.74C512.372 221.928 508.697 223.214 507.747 226.387C506.959 229.015 508.616 231.919 510.994 233.286C513.372 234.654 516.271 234.77 518.998 234.471C524.436 233.877 529.698 231.748 534.021 228.394C535.331 227.378 536.6 226.19 537.182 224.637C537.733 223.166 537.608 221.54 537.474 219.975L537.358 218.63C536.848 212.796 536.187 206.893 533.809 201.558C532.664 198.991 531.134 196.586 530.291 193.905C529.252 190.599 529.315 187.053 528.617 183.658C527.918 180.264 526.151 176.738 522.919 175.487C523.772 173.319 525.902 171.954 527.281 170.075C528.66 168.196 528.863 164.914 526.692 164.065C525.654 163.659 524.472 164.009 523.483 164.523C519.313 166.688 517.064 171.987 518.402 176.49C519.276 179.429 514.633 181.401 512.133 179.625C509.633 177.85 509.017 174.47 508.524 171.444C506.613 159.713 502.778 147.067 492.76 140.672C491.884 140.114 490.88 139.594 489.855 139.759ZM221.986 222.969C223.303 223.396 224.616 224.58 224.342 225.937C224.083 227.22 222.606 227.821 221.316 228.042C219.486 228.355 217.099 227.996 216.584 226.212C216.095 224.514 217.872 222.887 219.629 222.701C220.421 222.617 221.228 222.723 221.986 222.969ZM433.223 198.536C431.995 199.7 431.397 201.361 430.839 202.958C429.58 206.562 428.304 210.27 428.449 214.084C428.543 216.54 427.118 218.751 426.101 220.988C425.085 223.225 424.533 226.09 426.127 227.96C429.934 224.759 430.848 219.37 431.685 214.467C432.686 208.605 434.047 202.529 437.838 197.947C436.511 196.898 434.451 197.372 433.223 198.536ZM332.904 214.872C333.884 215.187 334.993 215.817 335.005 216.847C335.02 218.099 333.479 218.674 332.247 218.9C331.63 219.013 331.012 219.126 330.395 219.239C328.822 219.526 327.136 219.803 325.673 219.155C324.211 218.507 323.237 216.533 324.192 215.25C324.809 214.42 325.945 214.194 326.977 214.13C328.976 214.006 330.998 214.259 332.904 214.872ZM189.836 196.791C191.557 197.615 193.483 199.237 192.845 201.035C175.11 197.169 156.163 199.081 139.558 206.414C132.086 209.713 125.073 214.076 117.34 216.706C114.695 217.606 111.806 218.296 109.134 217.481C106.461 216.665 104.233 213.829 105.014 211.146C105.748 208.628 108.552 207.431 111.037 206.59C123.282 202.444 135.741 198.929 148.347 196.061C162.101 192.933 177.111 190.705 189.836 196.791ZM444.491 196.579C443.224 196.574 442.159 197.503 441.327 198.457C439.307 200.771 437.871 203.547 436.803 206.427C435.476 210.005 434.692 213.784 434.484 217.594C438.152 211.286 442.072 205.125 446.234 199.131C446.957 198.091 445.757 196.584 444.491 196.579ZM422.019 207.817C421.671 207.819 421.305 207.832 421.011 208.018C420.351 208.437 420.443 209.415 420.639 210.172C421.26 212.573 422.12 214.912 423.202 217.144C423.852 213.999 424.895 210.936 426.299 208.048C424.879 207.886 423.448 207.809 422.019 207.817ZM144.111 199.711C133.613 202.937 123.115 206.164 112.618 209.39C111.364 209.775 109.909 210.37 109.641 211.655C110.495 212.9 112.121 213.429 113.629 213.356C115.137 213.283 116.568 212.704 117.966 212.133C128.616 207.781 139.266 203.43 149.916 199.078C148.014 198.547 145.999 199.131 144.111 199.711ZM254.889 205.6C254.325 206.578 253.152 206.993 252.272 207.7C251.393 208.408 250.877 209.932 251.805 210.574C253.227 209.15 254.649 207.726 256.071 206.303C255.777 205.938 255.35 205.684 254.889 205.6ZM365.651 204.842C373.281 205.637 380.981 206.043 388.625 205.384C390.602 205.214 392.967 205.134 394.141 206.735C392.66 208.244 390.33 208.426 388.218 208.516C380.284 208.856 372.35 209.196 364.417 209.536C362.869 209.602 360.909 209.405 360.407 207.94C360.011 206.786 360.91 205.513 362.038 205.05C363.166 204.587 364.438 204.716 365.651 204.842ZM483.622 196.505C485.468 198.751 486.142 201.91 485.373 204.714C485.184 205.406 484.907 206.085 484.464 206.65C483.304 208.131 481.161 208.569 479.33 208.131C477.5 207.692 475.932 206.527 474.535 205.265C473.095 203.965 471.744 202.483 471.053 200.67C470.362 198.858 470.443 196.652 471.669 195.149C472.679 193.91 474.312 193.315 475.906 193.199C478.806 192.986 481.775 194.259 483.622 196.505ZM226.388 201.726C227.117 202.315 226.995 203.539 226.372 204.239C225.75 204.94 224.801 205.239 223.891 205.466C222.817 205.734 221.688 205.943 220.611 205.687C219.534 205.431 218.524 204.596 218.392 203.497C218.2 201.903 219.868 200.656 221.455 200.405C223.186 200.132 225.024 200.624 226.388 201.726ZM475.173 197.034C474.365 198.08 474.896 199.969 476.206 200.148C477.72 200.355 478.898 201.945 478.654 203.453C478.462 204.637 479.906 205.626 481.052 205.271C482.197 204.915 482.86 203.631 482.834 202.432C482.809 201.233 482.237 200.115 481.588 199.107C480.873 197.995 479.998 196.915 478.791 196.373C477.585 195.832 475.982 195.987 475.173 197.034ZM471.143 89.538C460.142 91.553 449.244 96.358 442.149 105.003C435.054 113.647 432.6 126.585 438.147 136.296C440.107 139.728 443.1 142.721 446.863 143.929C450.626 145.137 455.177 144.248 457.687 141.195C460.535 137.733 466.284 141.054 470.57 139.74C476.499 137.922 482.661 136.867 488.857 136.609C490.326 136.548 491.841 136.539 493.212 137.071C494.7 137.648 495.876 138.805 497.007 139.931C500.928 143.838 504.93 147.859 507.252 152.884C510.934 160.854 510.023 170.571 514.674 178.017C515.217 173.348 515.761 168.679 516.304 164.01C516.506 162.277 516.731 160.478 517.667 159.007C518.604 157.535 520.476 156.503 522.115 157.098C525.007 158.149 528.018 159.277 530.093 161.548C532.169 163.819 532.937 167.605 530.942 169.947C529.013 172.21 531.201 175.481 532.225 178.273C533.999 183.109 531.913 188.635 533.307 193.594C534.462 197.701 537.799 200.768 540.988 203.604C541.92 204.434 543.007 205.318 544.25 205.204C545.29 205.11 546.126 204.334 546.837 203.568C551.074 199.001 553.976 193.21 555.098 187.082C555.551 184.61 554.691 181.008 552.2 181.345C552.881 175.413 558.334 171.372 561.537 166.332C564.991 160.897 565.806 154.213 565.965 147.775C566.123 141.305 565.491 134.273 561.179 129.446C555.999 123.647 545.933 123.213 540.273 128.546C538.862 129.875 537.003 131.632 535.32 130.67C536.639 128.304 537.958 125.937 539.277 123.571C541.427 119.714 543.622 115.718 544.059 111.325C544.922 102.656 538.323 94.449 530.162 91.4C522.002 88.352 512.789 89.616 504.603 92.597C502.552 93.345 500.128 94.95 500.684 97.061C501.007 98.284 502.245 99.022 502.88 100.115C503.276 100.797 503.237 101.015 502.789 101.566C502.518 101.9 502.031 102.864 501.593 102.676C496.953 97.301 491.933 91.674 485.13 89.642C480.62 88.294 475.773 88.69 471.143 89.538ZM418.436 200.385C417.856 200.042 416.746 199.816 416.854 200.481C417.168 202.109 418.634 203.32 420.215 203.818C421.796 204.316 423.494 204.232 425.15 204.143C425.797 204.108 426.488 204.058 427.003 203.664C427.435 203.334 427.672 202.816 427.892 202.319C428.269 201.467 428.646 200.615 429.023 199.764C425.946 197.761 421.595 202.257 418.436 200.385ZM329.585 194.824C330.879 194.921 332.163 195.147 333.413 195.497C334.496 195.801 335.74 196.435 335.793 197.558C335.864 199.036 333.941 199.64 332.466 199.768C330.965 199.897 329.464 200.027 327.963 200.157C326.87 200.251 325.633 200.3 324.829 199.552C323.749 198.549 324.185 196.602 325.354 195.705C326.523 194.807 328.115 194.714 329.585 194.824ZM364.685 194.503C371.863 195.464 379.139 195.695 386.364 195.193C387.212 195.134 388.135 195.085 388.833 195.569C389.531 196.054 389.704 197.303 388.943 197.679C388.712 197.793 388.445 197.805 388.188 197.815C379.453 198.144 370.719 198.474 361.984 198.804C361.188 198.834 360.311 198.838 359.698 198.328C358.602 197.415 359.231 195.463 360.488 194.788C361.746 194.114 363.271 194.314 364.685 194.503ZM434.382 187.388C431.593 187.539 428.756 187.797 426.181 188.879C423.606 189.96 421.296 191.995 420.527 194.68C420.371 195.225 420.313 195.895 420.731 196.278C421.057 196.576 421.547 196.58 421.988 196.563C426.62 196.381 431.233 195.691 435.716 194.51C437.944 193.923 440.631 192.506 440.33 190.221C440.171 189.018 439.133 188.077 437.987 187.679C436.841 187.281 435.594 187.323 434.382 187.388ZM112.667 187.052C112.223 189.406 112.114 191.822 112.346 194.206C112.922 194.828 113.68 193.613 113.631 192.767C113.52 190.834 113.196 188.914 112.667 187.052ZM261.83 184.174C277.887 184.9 293.944 185.625 310.001 186.351C311.5 186.419 313.491 186.993 313.403 188.49C311.486 189.721 309.014 189.466 306.752 189.203C292.438 187.535 277.958 187.305 263.598 188.516C262.359 188.621 261.042 188.722 259.936 188.153C258.829 187.585 258.116 186.069 258.834 185.053C259.463 184.164 260.743 184.125 261.83 184.174ZM222.893 182.49C223.6 182.597 224.336 182.781 224.849 183.278C226.022 184.415 225.298 186.576 223.887 187.4C222.476 188.223 220.728 188.108 219.1 187.967C217.314 187.813 216.735 185.133 217.908 183.778C219.081 182.422 221.121 182.222 222.893 182.49ZM279.368 176.551C305.538 177.908 331.707 179.266 357.876 180.623C359.278 180.696 361.133 181.235 361.059 182.637C356.744 183.414 352.275 183.328 347.993 182.384L351.795 185.656C349.983 186.799 348.051 187.979 345.909 188.026C343.767 188.074 341.434 186.494 341.495 184.352C342.579 183.852 343.663 183.352 344.747 182.851C323.607 181.04 302.368 180.379 281.157 180.873C279.932 180.901 278.626 180.912 277.593 180.256C276.559 179.6 276.036 178.004 276.892 177.129C277.503 176.503 278.494 176.505 279.368 176.551ZM448.819 180.05C447.876 180.102 447.076 180.728 446.345 181.326C445.478 182.035 444.612 182.744 443.746 183.453C442.838 184.195 441.855 185.082 441.802 186.253C441.773 186.889 442.257 187.644 442.877 187.501C443.05 187.461 443.2 187.356 443.345 187.254C445.409 185.798 447.473 184.342 449.537 182.887C449.958 182.59 450.408 182.253 450.544 181.757C450.794 180.846 449.762 179.998 448.819 180.05ZM480.92 172.425C481.002 174.548 479.948 176.537 479.574 178.628C479.199 180.719 479.913 183.382 481.98 183.871C482.59 184.016 482.767 184.888 482.423 185.412C482.078 185.935 481.428 186.161 480.811 186.273C478.896 186.621 476.628 186.006 475.748 184.27C475.307 183.401 475.273 182.39 475.248 181.416C475.181 178.807 475.114 176.199 475.047 173.591C475.001 171.808 475.201 169.612 476.833 168.892C478.777 168.035 480.838 170.302 480.92 172.425ZM452.454 184.257C452.077 184.433 451.82 184.841 451.824 185.257L451.73 185.282C451.939 185.746 452.693 185.819 452.987 185.403C453.282 184.986 452.963 184.3 452.454 184.257ZM448.844 170.625C447.978 170.647 447.01 170.804 446.498 171.503C445.95 172.25 446.172 173.346 446.734 174.082C447.297 174.818 448.125 175.291 448.898 175.801C452.154 177.949 454.754 181.077 456.269 184.672C457.3 183.315 458.33 181.959 459.36 180.603C460.13 179.59 460.941 178.431 460.779 177.17C460.662 176.258 460.05 175.492 459.4 174.842C456.646 172.087 452.738 170.526 448.844 170.625ZM116.943 149.642C115.733 149.741 115.105 151.1 114.725 152.253C114.145 154.01 113.565 155.767 112.986 157.524C112.352 159.444 111.714 161.385 111.541 163.399C111.425 164.733 111.517 166.076 111.608 167.413C111.893 171.587 112.177 175.761 112.462 179.934C112.517 180.741 113.131 181.855 113.798 181.399C113.521 170.737 114.58 160.042 116.943 149.642ZM459.261 164.989C458.163 165.408 456.996 166.143 456.837 167.308C456.678 168.473 458.393 169.554 459.058 168.584C459.907 167.347 462.029 167.993 462.73 169.319C463.432 170.645 463.226 172.24 463.216 173.741C463.205 175.241 463.55 176.962 464.858 177.697C465.077 175.69 465.297 173.683 465.516 171.676C465.787 169.199 465.771 166.126 463.593 164.913C462.29 164.187 460.656 164.458 459.261 164.989ZM494.539 163.855C496.322 163.935 498.226 164.556 499.201 166.051C500.177 167.546 499.659 169.995 497.94 170.476C495.488 171.163 493.195 167.707 490.797 168.565C489.298 169.102 488.372 171.211 486.808 170.908C485.839 170.721 485.302 169.559 485.495 168.591C485.688 167.622 486.411 166.847 487.185 166.233C489.248 164.599 491.91 163.738 494.539 163.855ZM221.48 162.09C223.199 162.368 224.882 164.25 223.976 165.737C223.721 166.154 223.308 166.451 222.875 166.678C221.803 167.242 220.481 167.434 219.374 166.942C218.267 166.45 217.489 165.173 217.788 164C218.165 162.525 219.978 161.847 221.48 162.09ZM497.335 152.304C498.518 153.429 499.439 155.547 498.115 156.501C496.714 157.511 495.036 155.806 493.695 154.718C492.198 153.502 490.169 152.965 488.265 153.281C487.048 153.484 485.901 154.013 484.68 154.19C483.459 154.367 482.038 154.087 481.372 153.048C480.673 151.959 481.117 150.417 482.079 149.55C483.04 148.684 484.376 148.366 485.665 148.249C489.893 147.862 494.258 149.379 497.335 152.304ZM221.421 148.857C222.476 149.476 223.045 150.935 222.458 152.008C221.681 153.426 219.647 153.407 218.078 153.017C217.512 152.877 216.918 152.691 216.544 152.245C215.651 151.18 216.652 149.51 217.899 148.895C218.996 148.353 220.365 148.238 221.421 148.857Z" fill="#00160A"/>
<path fill-rule="evenodd" clip-rule="evenodd" d="M79.752 291.483C79.896 291.884 80.029 292.332 79.864 292.724C79.568 293.428 78.605 293.456 77.841 293.45C72.47 293.407 67.476 298.02 67.095 303.378C67.055 303.944 66.277 304.203 65.773 303.941C65.27 303.679 65.011 303.113 64.837 302.572C63.856 299.528 64.488 296.115 66.052 293.325C67.617 290.534 70.037 288.309 72.667 286.487C73.687 285.781 74.958 285.102 76.112 285.558C76.874 285.86 77.372 286.587 77.788 287.294C78.57 288.626 79.228 290.03 79.752 291.483ZM76.632 290.874C76.159 289.427 74.24 288.908 72.807 289.419C71.374 289.93 70.329 291.148 69.354 292.316C68.429 293.424 67.462 294.632 67.353 296.07C69.824 293.453 73.108 291.613 76.632 290.874Z" fill="#FFB61D"/>
</svg>
