<svg width="800" height="736" viewBox="0 0 800 736" fill="none" xmlns="http://www.w3.org/2000/svg">
<path d="M718.367 702.694V131.265C718.367 122.25 711.058 114.939 702.041 114.939H587.755C578.738 114.939 571.429 122.25 571.429 131.265V702.694H555.102V278.204C555.102 269.189 547.793 261.878 538.776 261.878H424.49C415.473 261.878 408.163 269.189 408.163 278.204V702.694H391.837V376.163C391.837 367.148 384.527 359.837 375.51 359.837H261.224C252.207 359.837 244.898 367.148 244.898 376.163V702.694H228.571V490.449C228.571 481.434 221.262 474.123 212.245 474.123H97.9592C88.942 474.123 81.6327 481.434 81.6327 490.449V702.694H0V735.347H800V702.694H718.367ZM195.918 702.694H114.286V580.245H195.918V702.694ZM195.918 547.592H114.286V506.776H195.918V547.592ZM359.184 702.694H277.551V465.959H359.184V702.694ZM359.184 433.306H277.551V392.49H359.184V433.306ZM522.449 702.694H440.816V368H522.449V702.694ZM522.449 335.347H440.816V294.531H522.449V335.347ZM685.714 702.694H604.082V221.061H685.714V702.694ZM685.714 188.408H604.082V147.592H685.714V188.408Z" fill="#AE14F7"/>
<path d="M93.179 428.526L465.306 56.3968V114.939H497.959V16.9796C497.959 7.9641 490.65 0.653076 481.633 0.653076H375.51V33.3061H442.216L70.0884 405.435L93.179 428.526Z" fill="#AE14F7"/>
</svg>
