<svg width="60" height="73" viewBox="0 0 60 73" fill="none" xmlns="http://www.w3.org/2000/svg">
<mask id="mask0_1_39" style="mask-type:luminance" maskUnits="userSpaceOnUse" x="0" y="0" width="60" height="73">
<path d="M59.465 0H0V72.6H59.465V0Z" fill="white"/>
</mask>
<g mask="url(#mask0_1_39)">
<path d="M20.085 38.695V72.595H0V23.985C0.000177419 22.8208 0.382749 21.6889 1.0889 20.7633C1.79505 19.8377 2.78568 19.1696 3.90848 18.8619C5.03128 18.5541 6.2241 18.6236 7.30353 19.0598C8.38295 19.496 9.28924 20.2746 9.88303 21.276C9.89103 21.284 9.89102 21.292 9.89902 21.299L20.085 38.695Z" fill="url(#paint0_linear_1_39)"/>
<path d="M59.4648 0V48.658C59.4651 49.8252 59.0812 50.96 58.3723 51.8872C57.6633 52.8144 56.6688 53.4823 55.5423 53.788C54.4158 54.0936 53.2201 54.0198 52.1398 53.5781C51.0594 53.1364 50.1545 52.3513 49.5649 51.344L39.3799 33.937V0H59.4648Z" fill="url(#paint1_linear_1_39)"/>
<path d="M59.4651 48.658V72.6H39.9461L25.9981 48.785C25.9981 48.777 25.9901 48.777 25.9901 48.769L25.9821 48.761L20.0821 38.695L9.89609 21.304C9.88809 21.297 9.88807 21.289 9.88007 21.281C9.28628 20.2796 8.38002 19.5009 7.3006 19.0648C6.22117 18.6286 5.02835 18.5591 3.90555 18.8668C2.78275 19.1746 1.79212 19.8426 1.08597 20.7682C0.379819 21.6938 -0.00275227 22.8258 -0.00292969 23.99V0H19.5161L35.8781 27.968C35.8913 27.9787 35.9022 27.9919 35.9101 28.007L38.5001 32.439L38.5081 32.447C38.5161 32.455 38.5161 32.471 38.5241 32.478L39.377 33.937L49.5631 51.344C50.1523 52.3523 51.0573 53.1383 52.138 53.5807C53.2188 54.0231 54.4152 54.0972 55.5423 53.7915C56.6693 53.4857 57.6643 52.8172 58.3734 51.8893C59.0825 50.9614 59.4661 49.8258 59.4651 48.658Z" fill="url(#paint2_linear_1_39)"/>
<g style="mix-blend-mode:multiply" opacity="0.16">
<path d="M20.085 38.6949V45.7729C12.051 32.4549 3.555 32.9089 0 33.8649V23.9899C0.000177419 22.8257 0.382749 21.6938 1.0889 20.7682C1.79505 19.8425 2.78568 19.1745 3.90848 18.8667C5.03128 18.559 6.2241 18.6285 7.30353 19.0647C8.38295 19.5009 9.28924 20.2795 9.88303 21.2809C9.89103 21.2889 9.89102 21.2969 9.89902 21.3039L20.085 38.6949Z" fill="black"/>
</g>
<g style="mix-blend-mode:multiply" opacity="0.16">
<path d="M59.4648 38.7429V48.6579C59.4651 49.8251 59.0812 50.9599 58.3723 51.8871C57.6633 52.8143 56.6688 53.4822 55.5423 53.7879C54.4158 54.0935 53.2201 54.0197 52.1398 53.578C51.0594 53.1363 50.1545 52.3512 49.5649 51.3439L39.3799 33.9369V28.1189C47.7809 37.7069 55.3918 38.9499 59.4648 38.7429Z" fill="black"/>
</g>
<g style="mix-blend-mode:screen" opacity="0.5">
<path d="M35.881 27.968C34.375 25.736 32.948 23.448 31.481 21.201L29.313 17.766L27.178 14.327C25.7507 12.023 24.3427 9.71166 22.954 7.39299C21.631 5.21699 20.348 3.01699 19.048 0.832993C15.948 0.848993 12.856 0.80899 9.763 0.80899L4.87802 0.746002C3.46669 0.730002 2.05333 0.705996 0.638 0.673996C0.582 3.368 0.502001 6.054 0.414001 8.748C0.271001 11.665 0.191 14.582 0 17.499V0H19.519L35.881 27.968Z" fill="white"/>
</g>
<g style="mix-blend-mode:multiply" opacity="0.25">
<path d="M59.4647 0V46.187C59.1857 42.338 59.0257 38.487 58.8907 34.638L58.7468 28.868L58.6597 23.09L58.6277 17.32L58.6597 11.549L58.7468 5.771L58.8828 0.541992C57.2008 0.478992 55.5198 0.422991 53.8458 0.334991C51.9728 0.255991 50.0918 0.135 48.2188 0H59.4647Z" fill="black"/>
</g>
<g style="mix-blend-mode:screen" opacity="0.5">
<path d="M56.324 72.5999H39.946L25.998 48.7849C27.345 50.6499 28.6281 52.5549 29.8881 54.4759C30.5171 55.4399 31.147 56.4049 31.761 57.3849C32.375 58.3649 32.9961 59.3219 33.5941 60.3099C34.8127 62.2633 36.0027 64.2346 37.1641 66.2239C37.7641 67.2039 38.336 68.2079 38.91 69.2049L40.41 71.8189C42.985 71.8669 45.5591 71.9379 48.1411 72.0579C50.8651 72.1779 53.599 72.3369 56.324 72.5999Z" fill="white"/>
</g>
<g style="mix-blend-mode:multiply" opacity="0.25">
<path d="M20.0848 48.0439V72.5999H2.9248C4.3518 72.4559 5.7858 72.3449 7.2128 72.2489C8.6398 72.1529 10.0738 72.0899 11.5128 72.0179C12.9388 71.9699 14.3658 71.899 15.8008 71.875C16.9558 71.851 18.1118 71.8189 19.2758 71.8029C19.2598 70.0259 19.2438 68.24 19.2678 66.463C19.2758 64.415 19.3228 62.3629 19.3678 60.3179C19.4318 58.2779 19.5118 56.229 19.6228 54.181C19.7338 52.133 19.8688 50.0919 20.0848 48.0439Z" fill="black"/>
</g>
<g style="mix-blend-mode:screen" opacity="0.7">
<path d="M20.085 38.695L9.89902 21.304C9.89102 21.297 9.89103 21.289 9.88303 21.281C9.28924 20.2796 8.38295 19.5009 7.30353 19.0648C6.2241 18.6286 5.03128 18.5591 3.90848 18.8668C2.78568 19.1746 1.79505 19.8426 1.0889 20.7682C0.382749 21.6938 0.000177419 22.8258 0 23.99V0C0.151 2 0.223026 4 0.327026 5.994C0.383026 6.994 0.42201 7.994 0.45401 8.994L0.554016 11.994C0.602016 13.994 0.673026 15.994 0.689026 17.988C0.697026 18.641 0.713008 19.288 0.721008 19.941C0.849008 19.805 0.983999 19.67 1.112 19.534C1.36168 19.3139 1.62235 19.1067 1.89301 18.913C2.17201 18.737 2.47502 18.594 2.76202 18.442C3.07202 18.315 3.383 18.219 3.694 18.108C4.021 18.044 4.34002 17.972 4.66602 17.932C5.00102 17.916 5.328 17.892 5.655 17.9C5.982 17.948 6.31601 17.956 6.64301 18.036C6.96522 18.1131 7.28192 18.2117 7.591 18.331C7.89704 18.4598 8.19289 18.6115 8.47601 18.785C8.7573 18.9647 9.0247 19.1653 9.276 19.385C9.499 19.624 9.75401 19.847 9.95401 20.102L10.512 20.902L10.412 20.782L10.523 20.934C12.181 23.8513 13.8097 26.7897 15.409 29.749C16.2144 31.223 17.0034 32.708 17.776 34.204C18.554 35.698 19.343 37.181 20.085 38.695Z" fill="white"/>
</g>
<g style="mix-blend-mode:screen" opacity="0.7">
<path d="M59.4653 48.6579V72.5999C59.3213 70.6069 59.2504 68.6069 59.1464 66.6139C59.0424 64.6209 58.9943 62.6209 58.9153 60.6289C58.8753 58.6359 58.8154 56.6359 58.7794 54.6429C58.7714 53.9899 58.7554 53.3359 58.7474 52.6829C58.5804 52.8659 58.4054 53.0489 58.2294 53.2249C57.5823 53.7866 56.8251 54.2072 56.0063 54.4599C55.6002 54.5856 55.184 54.6763 54.7623 54.7309C54.3352 54.7696 53.9054 54.7642 53.4794 54.7149C52.6244 54.6289 51.798 54.3598 51.0563 53.9259C50.683 53.7012 50.3378 53.4327 50.0283 53.1259L49.5583 52.6399C49.4388 52.489 49.327 52.3321 49.2233 52.1699L49.0643 51.9379L48.9924 51.8269L48.9203 51.7149L48.8804 51.6509L48.6094 51.1649L48.0604 50.1929L46.9523 48.2399L44.7844 44.3269L42.6403 40.3899C41.9233 39.0829 41.2454 37.7519 40.5524 36.4289C39.8664 35.1219 39.1813 33.8069 38.5273 32.4829L39.3804 33.9419L49.5663 51.3489C50.1564 52.3561 51.0617 53.1409 52.1424 53.5822C53.2231 54.0235 54.4189 54.0967 55.5453 53.7905C56.6718 53.4843 57.666 52.8157 58.3745 51.888C59.083 50.9603 59.4664 49.8252 59.4653 48.6579Z" fill="white"/>
</g>
</g>
<defs>
<linearGradient id="paint0_linear_1_39" x1="10.0425" y1="72.4872" x2="10.0425" y2="24.0651" gradientUnits="userSpaceOnUse">
<stop stop-color="#233B55"/>
<stop offset="1" stop-color="#131D32"/>
</linearGradient>
<linearGradient id="paint1_linear_1_39" x1="49.4224" y1="1.29536" x2="49.4224" y2="48.1982" gradientUnits="userSpaceOnUse">
<stop stop-color="#233B55"/>
<stop offset="1" stop-color="#131D32"/>
</linearGradient>
<linearGradient id="paint2_linear_1_39" x1="-0.00292969" y1="36.3" x2="59.4651" y2="36.3" gradientUnits="userSpaceOnUse">
<stop stop-color="#F700FC"/>
<stop offset="0.53125" stop-color="#F210F7"/>
<stop offset="0.967" stop-color="#7C00F8"/>
</linearGradient>
</defs>
</svg>
