<svg width="813" height="309" viewBox="0 0 813 309" fill="none" xmlns="http://www.w3.org/2000/svg">
<path d="M803.965 308.982H9.4032C4.5232 308.982 0.619202 305.146 0.619202 300.351C0.619202 295.556 4.5232 291.72 9.4032 291.72H804.062C808.942 291.72 812.846 295.556 812.846 300.351C812.749 305.146 808.845 308.982 803.965 308.982Z" fill="#444E59"/>
<path d="M451.043 291.24H313.622V299.296H451.043V291.24Z" fill="#444E59"/>
<path d="M546.496 238.591H222.269C215.827 238.591 210.557 233.413 210.557 227.083V13.7056C210.557 7.3762 215.827 2.1976 222.269 2.1976H546.496C552.938 2.1976 558.208 7.3762 558.208 13.7056V226.987C558.208 233.412 553.035 238.591 546.496 238.591Z" fill="#BBBFC2"/>
<path d="M537.602 198.101V23.8509H232.504V198.101H537.602Z" fill="#28A8E0"/>
<path opacity="0.4" d="M547.277 238.591H496.427V147.678C496.427 140.39 502.381 134.54 509.798 134.54H547.277V238.591Z" fill="#848484"/>
<path opacity="0.4" d="M235.25 150.747H210.557V222.384C210.557 231.303 218.365 238.591 227.539 238.591H255.941V171.461C255.843 160.241 246.571 150.747 235.25 150.747Z" fill="#848484"/>
<path d="M547.472 238.591H222.659C216.218 238.591 210.947 233.413 210.947 227.083V13.7056C210.947 7.3762 216.218 2.1976 222.659 2.1976H547.472C553.914 2.1976 559.184 7.3762 559.184 13.7056V226.987C559.184 233.412 553.914 238.591 547.472 238.591Z" stroke="#444E59" stroke-width="4" stroke-miterlimit="10" stroke-linecap="round" stroke-linejoin="round"/>
<path d="M537.209 198.099V23.8489H232.99V198.099H537.209Z" stroke="#444E59" stroke-width="4" stroke-miterlimit="10" stroke-linecap="round" stroke-linejoin="round"/>
<path opacity="0.32" d="M478.078 189.682H310.402C306.595 189.682 303.57 186.613 303.57 182.969V65.3957C303.57 61.6556 306.693 58.6827 310.402 58.6827H478.078C481.885 58.6827 484.91 61.7515 484.91 65.3957V182.873C484.91 186.613 481.885 189.682 478.078 189.682Z" fill="#848484"/>
<path d="M470.27 183.161H302.594C298.787 183.161 295.762 180.092 295.762 176.448V58.9704C295.762 55.2303 298.885 52.2574 302.594 52.2574H470.27C474.077 52.2574 477.102 55.3262 477.102 58.9704V176.448C477.2 180.188 474.077 183.161 470.27 183.161Z" fill="#AFB1B2"/>
<path d="M470.27 183.161H302.594C298.787 183.161 295.762 180.092 295.762 176.448V58.9704C295.762 55.2303 298.885 52.2574 302.594 52.2574H470.27C474.077 52.2574 477.102 55.3262 477.102 58.9704V176.448C477.2 180.188 474.077 183.161 470.27 183.161Z" stroke="#444E59" stroke-width="4" stroke-miterlimit="10" stroke-linecap="round" stroke-linejoin="round"/>
<path d="M425.96 291.24H344.171L354.322 238.591H415.81L425.96 291.24Z" fill="#AEAEAF"/>
<path opacity="0.32" d="M418.542 253.456L415.81 238.591H354.322L351.589 253.456H418.542Z" fill="#848484"/>
<path d="M425.96 291.24H344.171L354.322 238.591H415.81L425.96 291.24Z" stroke="#444E59" stroke-width="4" stroke-miterlimit="10" stroke-linecap="round" stroke-linejoin="round"/>
<path d="M451.043 291.24H313.622V299.296H451.043V291.24Z" stroke="#444E59" stroke-width="4" stroke-miterlimit="10" stroke-linecap="round" stroke-linejoin="round"/>
<path d="M384.578 220.37C387.919 220.37 390.629 217.708 390.629 214.424C390.629 211.141 387.919 208.479 384.578 208.479C381.236 208.479 378.526 211.141 378.526 214.424C378.526 217.708 381.236 220.37 384.578 220.37Z" fill="#444E59"/>
<path d="M456.509 171.077H288.832C285.026 171.077 282 168.009 282 164.364V46.7911C282 43.051 285.123 40.0781 288.832 40.0781H456.509C460.315 40.0781 463.341 43.1469 463.341 46.7911V164.269C463.438 168.009 460.315 171.077 456.509 171.077Z" fill="white"/>
<path d="M456.509 171.077H288.832C285.026 171.077 282 168.009 282 164.364V46.7911C282 43.051 285.123 40.0781 288.832 40.0781H456.509C460.315 40.0781 463.341 43.1469 463.341 46.7911V164.269C463.438 168.009 460.315 171.077 456.509 171.077Z" stroke="#444E59" stroke-width="4" stroke-miterlimit="10" stroke-linecap="round" stroke-linejoin="round"/>
<path d="M463.438 60.313H282V47.0788C282 43.2428 285.221 39.9822 289.222 39.9822H456.704C460.413 39.9822 463.438 42.9551 463.438 46.5993V60.313Z" fill="#BBBFC2"/>
<path d="M463.438 60.313H282V47.0788C282 43.2428 285.221 39.9822 289.222 39.9822H456.704C460.413 39.9822 463.438 42.9551 463.438 46.5993V60.313Z" stroke="#444E59" stroke-width="4" stroke-miterlimit="10" stroke-linecap="round" stroke-linejoin="round"/>
<path d="M299.47 53.4082C301.25 53.4082 302.691 51.9908 302.691 50.2435C302.691 48.4952 301.25 47.0788 299.47 47.0788C297.692 47.0788 296.25 48.4952 296.25 50.2435C296.25 51.9908 297.692 53.4082 299.47 53.4082Z" fill="#444E59"/>
<path d="M310.109 53.4082C311.888 53.4082 313.33 51.9908 313.33 50.2435C313.33 48.4953 311.888 47.0788 310.109 47.0788C308.33 47.0788 306.888 48.4953 306.888 50.2435C306.888 51.9908 308.33 53.4082 310.109 53.4082Z" fill="#444E59"/>
<path d="M320.65 53.4082C322.429 53.4082 323.87 51.9908 323.87 50.2435C323.87 48.4953 322.429 47.0788 320.65 47.0788C318.871 47.0788 317.429 48.4953 317.429 50.2435C317.429 51.9908 318.871 53.4082 320.65 53.4082Z" fill="#444E59"/>
<path d="M446.358 95.4124H297.714C296.64 95.4124 295.762 94.5493 295.762 93.4944V73.0677C295.762 72.0128 296.64 71.1497 297.714 71.1497H446.358C447.432 71.1497 448.31 72.0128 448.31 73.0677V93.4944C448.31 94.5493 447.432 95.4124 446.358 95.4124Z" fill="#6567C3"/>
<path opacity="0.2" d="M340.462 121.018H297.616C296.542 121.018 295.664 120.155 295.664 119.1V108.071C295.664 107.016 296.542 106.153 297.616 106.153H340.462C341.536 106.153 342.414 107.016 342.414 108.071V119.1C342.414 120.155 341.634 121.018 340.462 121.018Z" fill="#444E59"/>
<path opacity="0.2" d="M302.594 131.854H336.949" stroke="#444E59" stroke-width="4" stroke-miterlimit="10" stroke-linecap="round" stroke-linejoin="round"/>
<path opacity="0.2" d="M302.594 142.691H336.949" stroke="#444E59" stroke-width="4" stroke-miterlimit="10" stroke-linecap="round" stroke-linejoin="round"/>
<path opacity="0.2" d="M394.142 121.018H351.296C350.222 121.018 349.344 120.155 349.344 119.1V108.071C349.344 107.016 350.222 106.153 351.296 106.153H394.142C395.216 106.153 396.094 107.016 396.094 108.071V119.1C396.094 120.155 395.216 121.018 394.142 121.018Z" fill="#444E59"/>
<path opacity="0.2" d="M356.176 131.854H389.165" stroke="#444E59" stroke-width="4" stroke-miterlimit="10" stroke-linecap="round" stroke-linejoin="round"/>
<path opacity="0.2" d="M356.176 142.691H389.165" stroke="#444E59" stroke-width="4" stroke-miterlimit="10" stroke-linecap="round" stroke-linejoin="round"/>
<g opacity="0.2">
<path opacity="0.2" d="M447.725 144.034H404.878C403.805 144.034 402.926 143.171 402.926 142.116V108.167C402.926 107.112 403.805 106.249 404.878 106.249H447.725C448.798 106.249 449.677 107.112 449.677 108.167V142.116C449.677 143.171 448.798 144.034 447.725 144.034Z" fill="#444E59"/>
</g>
<g opacity="0.09">
<path opacity="0.09" d="M446.358 154.87H405.562C404 154.87 402.829 153.624 402.829 152.185C402.829 150.747 404.098 149.5 405.562 149.5H446.358C447.92 149.5 449.091 150.747 449.091 152.185C449.091 153.624 447.822 154.87 446.358 154.87Z" fill="#444E59"/>
</g>
<path d="M139.699 258.251H61.0337C60.0577 258.251 59.1793 258.538 58.4961 259.21L39.4641 275.513C37.7073 277.047 37.7073 279.732 39.4641 281.171L58.4961 297.761C59.1793 298.337 60.0577 298.912 61.0337 298.912H139.699C144.189 298.912 147.898 294.884 147.898 290.473V266.018C147.8 261.799 144.189 258.251 139.699 258.251ZM58.8865 283.089C56.2513 283.089 54.0065 280.979 54.0065 278.294C54.0065 275.608 56.1537 273.499 58.8865 273.499C61.6193 273.499 63.7665 275.608 63.7665 278.294C63.7665 280.979 61.6193 283.089 58.8865 283.089Z" fill="white"/>
<path d="M102.026 258.251H79.0897V299.008H102.026V258.251Z" fill="#F09F54"/>
<path d="M124.962 258.251H102.026V299.008H124.962V258.251Z" fill="#ED8B3B"/>
<path d="M137.65 299.008H124.962V258.251H138.04C143.408 258.251 147.898 262.566 147.898 267.936V289.034C147.8 294.501 143.213 299.008 137.65 299.008Z" fill="#FF6C37"/>
<path opacity="0.4" d="M141.846 260.265C141.456 260.169 141.066 260.169 140.675 260.169H62.0096C61.0336 260.169 60.1552 260.456 59.472 261.128L40.44 277.431C38.6832 278.965 38.6832 281.65 40.44 283.089L52.3472 293.35L65.2304 296.515C65.816 296.707 66.4992 296.707 67.1824 296.707C68.4512 296.707 69.6224 296.419 70.7936 295.843L140.87 260.744C141.163 260.648 141.554 260.456 141.846 260.265ZM59.8624 285.007C57.2272 285.007 54.9824 282.897 54.9824 280.212C54.9824 277.527 57.1296 275.417 59.8624 275.417C62.5952 275.417 64.7424 277.527 64.7424 280.212C64.7424 282.897 62.5952 285.007 59.8624 285.007Z" fill="#848484"/>
<path d="M139.699 258.251H61.0337C60.0577 258.251 59.1793 258.538 58.4961 259.21L39.4641 275.513C37.7073 277.047 37.7073 279.732 39.4641 281.171L58.4961 297.761C59.1793 298.337 60.0577 298.912 61.0337 298.912H139.699C144.189 298.912 147.898 294.884 147.898 290.473V266.018C147.8 261.799 144.189 258.251 139.699 258.251ZM58.8865 283.089C56.2513 283.089 54.0065 280.979 54.0065 278.294C54.0065 275.608 56.1537 273.499 58.8865 273.499C61.6193 273.499 63.7665 275.608 63.7665 278.294C63.7665 280.979 61.6193 283.089 58.8865 283.089Z" stroke="#444E59" stroke-width="4" stroke-miterlimit="10" stroke-linecap="round" stroke-linejoin="round"/>
<path d="M102.026 258.251H79.0897V299.008H102.026V258.251Z" stroke="#444E59" stroke-width="4" stroke-miterlimit="10" stroke-linecap="round" stroke-linejoin="round"/>
<path d="M124.962 258.251H102.026V299.008H124.962V258.251Z" stroke="#444E59" stroke-width="4" stroke-miterlimit="10" stroke-linecap="round" stroke-linejoin="round"/>
<path d="M137.65 299.008H124.962V258.251H138.04C143.408 258.251 147.898 262.566 147.898 267.936V289.034C147.8 294.501 143.213 299.008 137.65 299.008Z" stroke="#444E59" stroke-width="4" stroke-miterlimit="10" stroke-linecap="round" stroke-linejoin="round"/>
<path d="M119.398 219.507L49.3216 254.606C48.4432 254.99 47.8576 255.757 47.4672 256.62L38.0976 279.636C37.2192 281.746 38.488 284.144 40.7328 284.719L65.2304 290.857C66.1088 291.048 67.0848 290.952 67.9632 290.569L138.04 255.47C142.042 253.456 143.603 248.661 141.554 244.825L130.232 223.055C128.182 219.028 123.302 217.493 119.398 219.507Z" fill="white"/>
<path d="M106.199 226.076L85.7675 236.319L104.398 272.198L124.83 261.956L106.199 226.076Z" fill="#8D91DB"/>
<path d="M119.398 219.507L49.3216 254.606C48.4432 254.99 47.8576 255.757 47.4672 256.62L38.0976 279.636C37.2192 281.746 38.488 284.144 40.7328 284.719L65.2304 290.857C66.1088 291.048 67.0848 290.952 67.9632 290.569L138.04 255.47C142.042 253.456 143.603 248.661 141.554 244.825L130.232 223.055C128.182 219.028 123.302 217.493 119.398 219.507Z" stroke="#444E59" stroke-width="4" stroke-miterlimit="10" stroke-linecap="round" stroke-linejoin="round"/>
<path d="M56.7392 279.061C59.8653 279.061 62.4 276.57 62.4 273.499C62.4 270.427 59.8653 267.937 56.7392 267.937C53.613 267.937 51.0784 270.427 51.0784 273.499C51.0784 276.57 53.613 279.061 56.7392 279.061Z" fill="#444E59"/>
<path d="M85.7235 236.371L65.2919 246.614L83.9227 282.493L104.354 272.25L85.7235 236.371Z" fill="#BECCD5" stroke="#444E59" stroke-width="4" stroke-miterlimit="10" stroke-linecap="round" stroke-linejoin="round"/>
<path d="M85.7235 236.371L65.2919 246.614L83.9227 282.493L104.354 272.25L85.7235 236.371Z" stroke="#444E59" stroke-width="4" stroke-miterlimit="10" stroke-linecap="round" stroke-linejoin="round"/>
<path d="M106.199 226.076L85.7675 236.319L104.398 272.198L124.83 261.956L106.199 226.076Z" stroke="#444E59" stroke-width="4" stroke-miterlimit="10" stroke-linecap="round" stroke-linejoin="round"/>
<path d="M136.478 256.141L124.766 261.991L106.125 226.124L117.837 220.274C122.619 217.877 128.475 219.699 131.013 224.494L140.773 243.29C143.213 247.989 141.261 253.743 136.478 256.141Z" fill="#6567C3"/>
<path d="M136.478 256.141L124.766 261.991L106.125 226.124L117.837 220.274C122.619 217.877 128.475 219.699 131.013 224.494L140.773 243.29C143.213 247.989 141.261 253.743 136.478 256.141Z" stroke="#444E59" stroke-width="4" stroke-miterlimit="10" stroke-linecap="round" stroke-linejoin="round"/>
<path d="M235.152 299.296H169.467C164.099 299.296 159.707 294.98 159.707 289.706V160.337C159.707 155.062 164.099 150.747 169.467 150.747H235.152C240.52 150.747 244.912 155.062 244.912 160.337V289.706C244.912 295.076 240.52 299.296 235.152 299.296Z" fill="white"/>
<path d="M246.278 195.34H159.707V160.145C159.707 154.966 164.002 150.747 169.272 150.747H236.128C241.691 150.747 246.181 155.254 246.181 160.624V195.34H246.278Z" fill="#6567C3"/>
<path d="M235.152 299.296H169.467C164.099 299.296 159.707 294.98 159.707 289.706V160.337C159.707 155.062 164.099 150.747 169.467 150.747H235.152C240.52 150.747 244.912 155.062 244.912 160.337V289.706C244.912 295.076 240.52 299.296 235.152 299.296Z" stroke="#444E59" stroke-width="4" stroke-miterlimit="10" stroke-linecap="round" stroke-linejoin="round"/>
<path d="M235.25 299.296H169.76C164.197 299.296 159.61 294.788 159.61 289.322V270.909H244.912V289.802C244.912 295.076 240.52 299.296 235.25 299.296Z" fill="#BBBFC2"/>
<path d="M235.445 299.296H169.76C164.197 299.296 159.61 294.788 159.61 289.322V270.909H244.912V289.993C244.912 295.172 240.618 299.296 235.445 299.296Z" stroke="#444E59" stroke-width="4" stroke-miterlimit="10" stroke-linecap="round" stroke-linejoin="round"/>
<path d="M202.944 289.322C205.64 289.322 207.824 287.175 207.824 284.527C207.824 281.878 205.64 279.732 202.944 279.732C200.249 279.732 198.064 281.878 198.064 284.527C198.064 287.175 200.249 289.322 202.944 289.322Z" fill="#444E59"/>
<path opacity="0.3" d="M178.934 210.205H227.051" stroke="#444E59" stroke-width="4" stroke-miterlimit="10" stroke-linecap="round" stroke-linejoin="round"/>
<path opacity="0.3" d="M188.499 225.069H218.755" stroke="#444E59" stroke-width="4" stroke-miterlimit="10" stroke-linecap="round" stroke-linejoin="round"/>
<path opacity="0.3" d="M178.934 238.591H227.051" stroke="#444E59" stroke-width="4" stroke-miterlimit="10" stroke-linecap="round" stroke-linejoin="round"/>
<path opacity="0.62" d="M202.944 187.189C208.982 187.189 213.875 182.379 213.875 176.448C213.875 170.516 208.982 165.707 202.944 165.707C196.906 165.707 192.013 170.516 192.013 176.448C192.013 182.379 196.906 187.189 202.944 187.189Z" fill="white"/>
<path d="M218.755 253.456C218.755 256.429 216.315 258.826 213.29 258.826H192.696C189.67 258.826 187.23 256.429 187.23 253.456C187.23 250.483 189.67 248.085 192.696 248.085H213.29C216.315 247.989 218.755 250.387 218.755 253.456Z" fill="#ED8B3B"/>
<path d="M743.843 281.746H507.358V142.116C507.358 137.992 510.774 134.635 514.971 134.635H736.328C740.427 134.635 743.746 137.896 743.746 141.924V281.746H743.843Z" fill="#BBBFC2"/>
<path d="M744.429 282.034H508.042V142.02C508.042 137.8 511.555 134.348 515.85 134.348H736.621C740.915 134.348 744.429 137.8 744.429 142.02V282.034Z" stroke="#444E59" stroke-width="4" stroke-miterlimit="10" stroke-linecap="round" stroke-linejoin="round"/>
<path opacity="0.71" d="M731.474 269.688V146.744H521.146V269.688H731.474Z" fill="#5D5D5D"/>
<path opacity="0.32" d="M572.555 246.263H554.401C553.328 246.263 552.449 245.4 552.449 244.345V183.257C552.449 182.202 553.328 181.339 554.401 181.339H572.555C573.629 181.339 574.507 182.202 574.507 183.257V244.441C574.507 245.4 573.629 246.263 572.555 246.263Z" fill="#848484"/>
<path opacity="0.32" d="M703.632 258.634H598.81C596.662 258.634 594.906 256.908 594.906 254.798V176.064C594.906 173.955 596.662 172.228 598.81 172.228H703.632C705.779 172.228 707.536 173.955 707.536 176.064V254.798C707.536 256.908 705.877 258.634 703.632 258.634Z" fill="#848484"/>
<path d="M731.289 269.107V147.219H521.156V269.107H731.289Z" stroke="#444E59" stroke-width="4" stroke-miterlimit="10" stroke-linecap="round" stroke-linejoin="round"/>
<path d="M770.195 282.034H482.177V291.048C482.177 295.268 485.691 298.72 489.985 298.72H762.387C766.682 298.72 770.195 295.268 770.195 291.048V282.034Z" fill="white"/>
<path opacity="0.8" d="M493.206 299.296H759.264C764.632 299.296 769.024 295.268 770 289.802H482.373C483.349 295.268 487.838 299.296 493.206 299.296Z" fill="#BBBFC2"/>
<path d="M770.195 282.034H482.177V291.048C482.177 295.268 485.691 298.72 489.985 298.72H762.387C766.682 298.72 770.195 295.268 770.195 291.048V282.034Z" stroke="#444E59" stroke-width="4" stroke-miterlimit="10" stroke-linecap="round" stroke-linejoin="round"/>
<path d="M569.237 176.448H547.277V198.025H569.237V176.448Z" fill="#F09F54"/>
<path d="M569.627 176.64H547.667V198.217H569.627V176.64Z" stroke="#444E59" stroke-width="4" stroke-miterlimit="10" stroke-linecap="round" stroke-linejoin="round"/>
<path d="M569.627 176.64H547.667V198.217H569.627V176.64Z" stroke="#444E59" stroke-width="4" stroke-miterlimit="10" stroke-linecap="round" stroke-linejoin="round"/>
<path d="M569.237 198.025H547.277V219.603H569.237V198.025Z" fill="#8D91DB"/>
<path d="M569.627 198.313H547.667V219.891H569.627V198.313Z" stroke="#444E59" stroke-width="4" stroke-miterlimit="10" stroke-linecap="round" stroke-linejoin="round"/>
<path d="M569.237 219.603H547.277V241.18H569.237V219.603Z" fill="#6567C3"/>
<path d="M569.627 219.891H547.667V241.468H569.627V219.891Z" stroke="#444E59" stroke-width="4" stroke-miterlimit="10" stroke-linecap="round" stroke-linejoin="round"/>
<path d="M697.288 252.017H592.368C590.221 252.017 588.464 250.291 588.464 248.181V169.447C588.464 167.337 590.221 165.611 592.368 165.611H697.288C699.435 165.611 701.192 167.337 701.192 169.447V248.181C701.192 250.387 699.435 252.017 697.288 252.017Z" fill="white"/>
<path d="M697.288 252.017H592.368C590.221 252.017 588.464 250.291 588.464 248.181V169.447C588.464 167.337 590.221 165.611 592.368 165.611H697.288C699.435 165.611 701.192 167.337 701.192 169.447V248.181C701.192 250.387 699.435 252.017 697.288 252.017Z" stroke="#444E59" stroke-width="4" stroke-miterlimit="10" stroke-linecap="round" stroke-linejoin="round"/>
<g opacity="0.3">
<g opacity="0.3">
<path opacity="0.3" d="M668.203 229.289V230.727H666.739" stroke="#444E59" stroke-width="2" stroke-linejoin="round"/>
<path opacity="0.3" d="M664.885 230.727H623.99" stroke="#444E59" stroke-width="2" stroke-linejoin="round" stroke-dasharray="2.86 2.86"/>
<path opacity="0.3" d="M623.014 230.727H621.55V229.289" stroke="#444E59" stroke-width="2" stroke-linejoin="round"/>
<path opacity="0.3" d="M621.55 227.275V189.874" stroke="#444E59" stroke-width="2" stroke-linejoin="round" stroke-dasharray="3 3"/>
<path opacity="0.3" d="M621.55 188.915V187.476H623.014" stroke="#444E59" stroke-width="2" stroke-linejoin="round"/>
<path opacity="0.3" d="M624.869 187.476H665.763" stroke="#444E59" stroke-width="2" stroke-linejoin="round" stroke-dasharray="2.86 2.86"/>
<path opacity="0.3" d="M666.739 187.476H668.203V188.915" stroke="#444E59" stroke-width="2" stroke-linejoin="round"/>
<path opacity="0.3" d="M668.203 190.833V228.33" stroke="#444E59" stroke-width="2" stroke-linejoin="round" stroke-dasharray="3 3"/>
</g>
</g>
<path d="M625.259 184.12H618.33V190.929H625.259V184.12Z" fill="white"/>
<path d="M624.869 183.832H618.037V190.545H624.869V183.832Z" stroke="#444E59" stroke-miterlimit="10" stroke-linejoin="round"/>
<path d="M625.259 227.276H618.33V234.085H625.259V227.276Z" fill="white"/>
<path d="M624.869 227.083H618.037V233.796H624.869V227.083Z" stroke="#444E59" stroke-miterlimit="10" stroke-linejoin="round"/>
<path d="M671.717 184.12H664.787V190.929H671.717V184.12Z" fill="white"/>
<path d="M671.619 183.832H664.787V190.545H671.619V183.832Z" stroke="#444E59" stroke-miterlimit="10" stroke-linejoin="round"/>
<path d="M671.717 227.276H664.787V234.085H671.717V227.276Z" fill="white"/>
<path d="M671.619 227.083H664.787V233.796H671.619V227.083Z" stroke="#444E59" stroke-miterlimit="10" stroke-linejoin="round"/>
<path d="M558.696 209.438L565.625 224.014L572.36 227.467L577.045 222.863L573.629 216.15L558.696 209.438Z" fill="white"/>
<path d="M558.696 209.438L565.625 224.014L572.36 227.467L577.045 222.863L573.629 216.15L558.696 209.438Z" stroke="#444E59" stroke-miterlimit="10" stroke-linejoin="round"/>
<path d="M567.48 219.507C568.504 219.507 569.334 218.691 569.334 217.685C569.334 216.679 568.504 215.863 567.48 215.863C566.456 215.863 565.625 216.679 565.625 217.685C565.625 218.691 566.456 219.507 567.48 219.507Z" fill="#444E59"/>
<path d="M558.696 209.438L566.406 217.014" stroke="#444E59" stroke-miterlimit="10" stroke-linecap="round" stroke-linejoin="round"/>
<path d="M577.074 222.788L572.381 227.399L575.762 230.722L580.456 226.111L577.074 222.788Z" fill="white"/>
<path d="M577.074 222.788L572.381 227.399L575.762 230.722L580.456 226.111L577.074 222.788Z" stroke="#444E59" stroke-miterlimit="10" stroke-linejoin="round"/>
</svg>
